<svg width="487" height="24" viewBox="0 0 487 24" fill="none" xmlns="http://www.w3.org/2000/svg">
<path d="M476.708 8.54167L475.6 9.65L477.658 11.7083H469.583V13.2917H477.658L475.6 15.35L476.708 16.4583L480.667 12.5L476.708 8.54167ZM483.833 18.0417H477.5V19.625H483.833C484.704 19.625 485.417 18.9125 485.417 18.0417V6.95833C485.417 6.0875 484.704 5.375 483.833 5.375H477.5V6.95833H483.833V18.0417Z" fill="#70FF00"/>
<path d="M438.542 10.125L441.51 12.5C441.791 12.7248 442.14 12.8474 442.5 12.8474C442.86 12.8474 443.209 12.7248 443.49 12.5L446.458 10.125M449.625 16.4583V8.54168C449.625 8.12175 449.458 7.71902 449.161 7.42209C448.864 7.12516 448.462 6.95834 448.042 6.95834H436.958C436.538 6.95834 436.136 7.12516 435.839 7.42209C435.542 7.71902 435.375 8.12175 435.375 8.54168V16.4583C435.375 16.8783 435.542 17.281 435.839 17.5779C436.136 17.8749 436.538 18.0417 436.958 18.0417H448.042C448.462 18.0417 448.864 17.8749 449.161 17.5779C449.458 17.281 449.625 16.8783 449.625 16.4583Z" stroke="#70FF00" stroke-width="2" stroke-linecap="round" stroke-linejoin="round"/>
<path d="M413.833 18.8333L410.627 15.6271M410.627 15.6271C411.142 15.1125 411.55 14.5015 411.828 13.8291C412.107 13.1568 412.25 12.4361 412.25 11.7083C412.25 10.9806 412.107 10.2599 411.828 9.58752C411.55 8.91514 411.142 8.3042 410.627 7.78958C410.112 7.27496 409.502 6.86675 408.829 6.58824C408.157 6.30973 407.436 6.16638 406.708 6.16638C405.981 6.16638 405.26 6.30973 404.588 6.58824C403.915 6.86675 403.304 7.27496 402.79 7.78958C401.75 8.8289 401.166 10.2385 401.166 11.7083C401.166 13.1781 401.75 14.5878 402.79 15.6271C403.829 16.6664 405.239 17.2503 406.708 17.2503C408.178 17.2503 409.588 16.6664 410.627 15.6271Z" stroke="#70FF00" stroke-width="2" stroke-linecap="round" stroke-linejoin="round"/>
<ellipse cx="12.6559" cy="12" rx="12.6559" ry="12" fill="#FF0000"/>
<ellipse cx="44.5001" cy="12" rx="12.6559" ry="12" fill="#FFF617"/>
<ellipse cx="76.3442" cy="12" rx="12.6559" ry="12" fill="#70FF00"/>
</svg>
