<svg width="501" height="361" viewBox="0 0 501 361" fill="none" xmlns="http://www.w3.org/2000/svg">
<path d="M1.97368 359.564L2.55123 360.114C2.89776 360.444 3.30143 360.673 3.77398 360.741C4.40297 360.964 5.19483 360.546 5.73787 360.254C6.45071 359.858 6.9909 359.453 7.59999 358.887C8.25445 358.28 8.84164 357.635 9.45517 356.983C10.3074 356.066 11.2269 355.187 12.0718 354.243C14.7881 351.249 17.0906 347.886 19.3886 344.61C21.9943 340.908 24.4171 337.058 26.7536 333.204C30.9051 326.377 34.5374 319.211 38.3188 312.175C39.2375 310.473 40.2497 308.801 41.0601 307.016C42.3746 304.182 43.6891 301.349 45.0036 298.515C47.7014 292.687 50.5002 286.916 53.1045 281.056C63.6738 257.351 74.2768 233.664 85.1006 210.058C89.9351 199.55 94.9042 189.119 99.9668 178.718C102.735 173.041 105.529 167.356 108.35 161.665C109.625 159.097 110.967 156.568 112.268 153.994C112.817 152.905 113.434 151.854 114.01 150.758C115.1 148.753 116.156 146.729 117.321 144.789C117.507 144.538 117.719 144.281 117.932 144.023C117.876 144.436 117.793 144.857 117.704 145.25C117.344 146.514 116.985 147.777 116.659 149.06C116.279 150.556 115.952 152.038 115.572 153.534C113.231 162.188 110.402 170.721 107.72 179.27C106.043 184.589 104.293 189.843 102.53 195.157C98.6283 206.882 94.7264 218.608 90.7045 230.311C86.4671 242.669 82.2297 255.027 77.9586 267.366C76.1977 272.481 74.4031 277.576 72.7022 282.703C71.6933 285.821 70.5908 288.908 69.6155 292.045C68.7517 294.868 67.7679 297.667 66.9904 300.494C66.4564 302.459 65.9224 304.423 65.3884 306.388C64.6344 309.095 64.173 311.834 63.5989 314.577C63.5106 315.283 63.4223 315.988 63.3867 316.68C63.4228 317.323 63.478 317.932 63.5668 318.56C63.7581 319.047 63.9421 319.507 64.1788 319.952C64.4682 320.383 64.7576 320.814 65.047 321.245C65.5703 322.009 66.384 321.67 66.9915 321.303C67.8669 320.777 68.7305 320.311 69.6131 319.811C70.4694 319.319 71.1765 318.697 71.8954 318.016C73.2878 316.694 74.5048 315.25 75.6734 313.734C76.8421 312.218 77.869 310.6 78.9631 309.02C80.4029 306.946 81.749 304.842 83.0879 302.711C85.6821 298.558 88.1081 294.31 90.426 289.978C92.4654 286.177 94.5049 282.376 96.518 278.583C97.7077 276.323 99.0246 274.114 100.121 271.823C103.243 265.48 106.325 259.091 109.447 252.748C110.242 251.109 111.077 249.515 111.83 247.83C113.142 244.884 114.453 241.937 115.765 238.991C121.225 226.749 126.705 214.473 132.158 202.204C134.682 196.566 137.265 190.94 139.823 185.32C142.097 180.319 144.312 175.306 146.627 170.35C148.4 166.509 150.166 162.642 151.999 158.814C152.95 156.819 153.887 154.771 154.871 152.795C155.49 151.545 156.082 150.303 156.674 149.06C156.572 149.514 156.452 150.001 156.351 150.455C154.468 157.591 152.226 164.656 150.123 171.711C148.209 178.117 146.141 184.481 144.134 190.856C142.318 196.696 140.611 202.619 138.836 208.504C137.192 214.041 135.507 219.532 133.829 225.05C130.192 237.015 126.468 248.975 122.932 260.997C121.361 266.287 119.771 271.609 118.327 276.949C117.418 280.323 116.508 283.698 115.659 287.084C115.239 288.847 114.786 290.591 114.418 292.339C113.978 294.334 113.665 296.38 113.311 298.38C113.138 299.393 113.091 300.456 113.124 301.498C113.17 302.791 113.728 303.886 114.248 305.048C114.536 305.678 114.901 306.485 115.816 306.204C116.644 305.918 117.487 305.685 118.316 305.399C119.091 305.127 119.82 304.585 120.478 304.091C121.902 302.987 123.104 301.49 124.19 300.083C126.835 296.625 129.256 292.974 131.49 289.262C136.041 281.728 139.853 273.775 143.51 265.779C146.698 258.85 149.616 251.768 152.662 244.737C154.659 240.067 156.63 235.405 158.594 230.717C160.953 225.096 163.378 219.514 165.669 213.855C175.28 190.272 184.79 166.632 194.977 143.288C197.069 138.649 199.141 134.045 201.326 129.437C202.357 127.221 203.456 125.043 204.548 122.839C204.964 121.986 205.387 121.159 205.837 120.325C205.99 120.055 206.116 119.793 206.268 119.524C206.159 119.952 206.032 120.413 205.957 120.859C205.521 122.769 205.138 124.663 204.649 126.587C202.419 134.926 199.755 143.13 197.217 151.384C195.52 156.935 193.723 162.429 191.966 167.968C190.313 173.167 188.66 178.365 187.075 183.602C185.27 189.581 183.464 195.559 181.632 201.546C177.73 214.294 173.793 227.023 169.831 239.759C168.169 245.13 166.568 250.513 165 255.915C163.138 262.307 161.303 268.691 159.723 275.176C159.393 276.545 159.062 277.914 158.732 279.282C157.956 282.421 157.513 285.638 157.269 288.857C157.131 290.201 156.921 291.594 157.226 292.901C157.479 294.023 157.941 294.974 158.757 295.77C159.029 296.036 159.372 296.253 159.754 296.403C159.98 296.397 160.212 296.418 160.438 296.412C160.85 296.468 161.286 296.405 161.659 296.216C162.371 296.019 163.081 295.511 163.714 295.136C164.42 294.714 165.036 294.175 165.667 293.688C168.15 291.695 170.031 288.96 171.869 286.379C174.022 283.398 175.951 280.224 177.753 277C181.258 270.807 184.385 264.377 187.62 258.031C188.429 256.445 189.305 254.896 190.02 253.279C191.018 251.044 192.042 248.802 193.048 246.593C195.521 241.082 198.089 235.602 200.502 230.08C200.415 230.274 200.327 230.469 200.239 230.664C204.15 221.945 208.009 213.24 211.853 204.483C211.677 204.872 211.509 205.288 211.333 205.677C214.158 199.388 217.077 193.129 219.936 186.859C220.873 184.811 221.761 182.692 222.758 180.656C224.044 178.028 225.364 175.42 226.677 172.786C229.315 167.457 231.911 162.083 234.669 156.777C237.617 151.135 240.531 145.474 243.539 139.844C246.211 134.846 248.91 129.841 251.65 124.881C252.759 122.842 253.894 120.797 255.037 118.777C256.823 115.699 258.527 112.531 260.413 109.511C260.759 109.017 261.138 108.543 261.525 108.096C261.869 107.802 262.213 107.508 262.557 107.214C262.632 107.278 262.68 107.35 262.754 107.415C262.944 107.589 263.089 107.805 263.234 108.02C263.27 108.152 263.299 108.258 263.336 108.389C263.374 108.833 263.378 109.258 263.356 109.69C263.12 111.402 262.731 113.071 262.323 114.774C261.868 116.716 261.548 118.736 261.127 120.697C260.225 124.921 259.057 129.106 258.002 133.287C256.29 139.808 254.585 146.355 252.873 152.876C251.331 158.782 249.542 164.614 247.839 170.451C244.602 181.709 241.143 192.886 237.873 204.125C236.061 210.389 234.25 216.654 232.445 222.945C230.823 228.56 229.201 234.176 227.698 239.816C226.865 243.056 225.919 246.298 225.172 249.543C223.935 254.91 222.637 260.266 222.585 265.816C222.589 266.752 222.569 267.808 222.791 268.712C222.871 269.002 222.951 269.292 223.031 269.582C223.242 270.035 223.445 270.461 223.655 270.914C223.962 271.511 224.5 271.816 225.046 272.148C225.271 272.142 225.504 272.163 225.729 272.157C226.134 272.187 226.537 272.104 226.929 271.882C228.439 271.294 229.722 270.087 230.861 268.977C232.481 267.45 233.816 265.718 235.104 263.914C237.571 260.534 239.957 257.063 242.183 253.523C243.457 251.467 244.731 249.411 245.879 247.305C248.223 242.966 250.593 238.619 252.937 234.28C254.218 231.938 255.506 229.623 256.632 227.239L263.391 212.821C264.732 209.98 266.099 207.131 267.38 204.279C267.437 204.178 267.487 204.05 267.518 203.957C267.567 203.829 267.644 203.695 267.693 203.567C267.922 203.163 268.117 202.74 268.244 202.279C268.244 202.279 268.237 202.253 268.256 202.219C268.306 202.092 268.382 201.957 268.425 201.804C268.375 201.931 268.299 202.065 268.249 202.193C268.318 202.032 268.387 201.871 268.463 201.736C268.665 201.34 268.867 200.943 269.002 200.508C268.995 200.482 269.04 200.441 269.033 200.414C269.197 200.085 269.328 199.737 269.492 199.407C269.701 199.037 269.851 198.655 270 198.273C270.069 198.112 270.145 197.977 270.214 197.816C270.39 197.427 270.566 197.038 270.742 196.648C270.951 196.278 271.101 195.896 271.25 195.514C271.319 195.353 271.395 195.218 271.438 195.065C271.889 194.031 272.348 193.024 272.799 191.991C272.624 192.38 272.455 192.796 272.279 193.185C272.837 191.924 273.37 190.669 273.935 189.434C273.759 189.823 273.591 190.239 273.415 190.628C273.709 189.951 274.011 189.299 274.306 188.622C274.318 188.562 274.363 188.521 274.375 188.461C274.687 187.948 274.924 187.372 275.109 186.809C275.109 186.809 275.128 186.776 275.147 186.742C275.568 185.802 275.988 184.863 276.383 183.93C276.695 183.418 276.939 182.868 277.098 182.313C277.167 182.152 277.216 182.025 277.285 181.864C277.385 181.609 277.511 181.347 277.611 181.092C277.561 181.22 277.511 181.347 277.435 181.482C277.542 181.253 277.649 181.025 277.749 180.77C277.787 180.703 277.798 180.643 277.836 180.576C277.836 180.576 277.817 180.609 277.798 180.643C277.798 180.643 277.817 180.609 277.836 180.576C277.867 180.482 277.924 180.381 277.955 180.287C277.943 180.347 277.898 180.388 277.886 180.448C277.886 180.448 277.886 180.448 277.905 180.415C278.043 180.093 278.181 179.771 278.319 179.449C278.2 179.737 278.055 180.033 277.936 180.321C277.986 180.194 278.062 180.059 278.112 179.932C278.338 179.415 278.544 178.932 278.77 178.415C278.732 178.482 278.72 178.542 278.682 178.61C278.644 178.677 278.632 178.737 278.594 178.804C278.613 178.771 278.625 178.711 278.67 178.67C278.64 178.764 278.582 178.865 278.552 178.958C278.64 178.764 278.747 178.535 278.834 178.341C278.892 178.24 278.922 178.146 278.972 178.019C278.941 178.112 278.903 178.18 278.873 178.273C280.483 174.563 282.019 170.788 283.563 167.039C285.703 161.961 287.816 156.891 289.93 151.821C291.43 148.226 293.044 144.628 294.605 141.045C296.415 136.825 298.259 132.624 300.076 128.43C304.074 119.716 308.112 111.047 312.211 102.389C314.27 98.0436 316.389 93.7099 318.534 89.3689C319.442 87.5277 320.384 85.7055 321.327 83.8834C321.883 82.8209 322.459 81.7247 323.016 80.6622C323.756 79.2367 324.563 77.8493 325.397 76.4547C325.785 75.8079 326.132 75.1156 326.52 74.4688C326.648 76.3641 326.741 78.2402 326.643 80.1411C326.251 84.0538 325.533 87.9148 324.808 91.7495C323.967 96.2972 322.887 100.798 321.807 105.298C320.925 108.978 320.05 112.683 319.135 116.343C317.573 122.794 315.978 129.226 314.417 135.676C311.31 148.431 308.23 161.179 305.217 173.965C302.433 185.836 299.795 197.723 297.232 209.674C295.975 215.586 294.725 221.525 293.51 227.483C292.244 233.567 291.113 239.729 290.301 245.915C290.108 247.473 289.942 249.024 289.842 250.613C289.73 251.95 289.745 253.337 289.753 254.697C289.823 255.359 289.919 256.014 290.015 256.669C290.197 257.328 290.493 257.985 290.807 258.608C291.15 259.336 291.438 259.966 292.374 259.764C292.942 259.663 293.529 259.529 294.123 259.422C294.928 259.256 295.71 258.699 296.348 258.238C296.835 257.848 297.282 257.412 297.729 256.976C298.395 256.309 298.975 255.638 299.54 254.914C301.551 252.341 303.398 249.588 305.091 246.791C306.887 243.853 308.481 240.8 310.042 237.728C311.724 234.48 313.379 231.24 315.028 227.973C315.799 226.454 316.603 224.954 317.314 223.423C317.314 223.423 317.352 223.355 317.371 223.322C317.599 222.918 317.794 222.495 317.922 222.034C317.991 221.873 318.06 221.712 318.136 221.577C318.143 221.603 318.098 221.644 318.079 221.678C318.109 221.584 318.167 221.483 318.197 221.39C318.235 221.322 318.266 221.229 318.304 221.161C318.304 221.161 318.342 221.094 318.335 221.068C318.366 220.974 318.423 220.873 318.461 220.806C318.423 220.873 318.392 220.967 318.354 221.034C318.461 220.806 318.568 220.577 318.668 220.323C318.877 219.952 319.046 219.537 319.188 219.128C319.257 218.967 319.333 218.833 319.376 218.679C319.566 218.342 319.716 217.96 319.865 217.578C319.858 217.552 319.903 217.511 319.915 217.451C319.984 217.29 320.06 217.155 320.129 216.994C320.274 216.698 320.393 216.41 320.504 216.095C320.554 215.968 320.623 215.807 320.699 215.672C320.818 215.384 320.944 215.122 321.063 214.834C321.341 214.302 321.559 213.759 321.778 213.216C321.847 213.055 321.915 212.894 322.011 212.726C322.087 212.591 322.137 212.464 322.168 212.37C322.377 212 322.546 211.584 322.681 211.15C322.711 211.056 322.749 210.989 322.78 210.895C322.868 210.7 322.956 210.506 323.044 210.311C323.273 209.907 323.46 209.458 323.614 208.989C323.733 208.701 323.859 208.439 323.978 208.15C323.989 208.09 324.027 208.023 324.046 207.989C324.199 207.72 324.344 207.424 324.463 207.136C324.57 206.908 324.669 206.653 324.776 206.425C325.143 205.699 325.434 204.908 325.767 204.163C326.053 203.658 326.297 203.108 326.463 202.58C326.413 202.707 326.363 202.834 326.287 202.969C326.337 202.842 326.387 202.714 326.463 202.58L326.513 202.452C326.582 202.291 326.651 202.13 326.727 201.996C326.72 201.969 326.765 201.928 326.784 201.895C326.777 201.868 326.822 201.827 326.841 201.794C326.891 201.666 326.967 201.532 327.01 201.378C327.155 201.082 327.266 200.768 327.411 200.472C327.392 200.506 327.38 200.566 327.361 200.599C328.226 198.6 329.024 196.562 329.828 194.551C331.54 190.387 333.245 186.196 334.923 182.012C336.766 177.5 338.601 172.961 340.462 168.414C345.695 155.553 350.954 142.686 356.22 129.844C356.845 128.309 357.436 126.754 358.094 125.238C358.239 124.942 358.376 124.62 358.514 124.298C358.583 124.137 358.652 123.976 358.74 123.781C358.866 123.519 358.992 123.257 359.092 123.003C359.275 122.64 359.451 122.25 359.567 121.849C359.578 121.789 359.616 121.722 359.635 121.688C359.811 121.299 359.98 120.883 360.182 120.486C360.422 120.023 360.636 119.566 360.752 119.165C361.28 117.997 361.781 116.836 362.301 115.642L363.85 112.118C363.85 112.118 363.869 112.085 363.888 112.051C364.181 111.573 364.426 111.022 364.585 110.467C364.76 110.078 364.91 109.696 365.086 109.307C365.155 109.146 365.25 108.977 365.319 108.816C365.445 108.554 365.564 108.266 365.682 107.978C365.751 107.817 365.801 107.689 365.87 107.528C365.82 107.656 365.763 107.757 365.713 107.884L365.801 107.689C365.801 107.689 365.751 107.817 365.732 107.85C365.732 107.85 365.839 107.622 365.889 107.495C365.977 107.3 366.038 107.113 366.134 106.944C366.103 107.038 366.046 107.139 366.015 107.233C366.046 107.139 366.084 107.072 366.141 106.971C366.148 106.997 366.103 107.038 366.084 107.072C366.103 107.038 366.115 106.978 366.134 106.944C366.145 106.884 366.191 106.843 366.203 106.783C369.123 100.326 372.044 93.8678 375.032 87.4483C376.56 84.158 378.156 80.9059 379.744 77.6274C380.344 76.4111 380.943 75.1949 381.576 73.9977C382.785 71.7043 383.926 69.3728 385.236 67.1367C385.319 67.0284 385.403 66.9202 385.486 66.8119C385.649 66.6817 385.811 66.5516 385.974 66.4215C386.061 66.7379 386.149 67.0544 386.237 67.3708C386.231 67.6564 386.232 67.9683 386.226 68.2539C385.977 70.2249 385.534 72.1077 385.045 74.0314C384.495 76.1426 384.031 78.2582 383.515 80.3884C383.581 80.1146 383.647 79.8409 383.739 79.5598C383.673 79.8336 383.588 80.141 383.522 80.4148C381.271 88.9867 378.68 97.4542 376.175 105.926C374.453 111.797 372.798 117.705 371.11 123.595C367.764 135.281 364.264 146.923 360.959 158.654C360.144 161.549 359.362 164.462 358.553 167.383C357.795 170.176 357.01 172.977 356.345 175.801C355.626 178.839 354.96 181.862 354.334 184.931C353.986 186.646 353.818 188.396 353.65 190.146C353.591 190.957 353.397 192.203 353.702 192.999C353.753 193.183 353.857 193.353 353.915 193.564C354.009 194.106 354.31 194.477 354.8 194.711C355.334 195.102 355.693 195.173 356.362 195.13C356.508 195.146 356.674 195.129 356.813 195.119C357.265 194.908 357.717 194.698 358.136 194.469C358.771 193.895 359.354 193.337 359.908 192.673C360.635 191.818 361.199 190.782 361.853 189.863C364.587 186.012 366.661 181.719 368.782 177.498C370.538 174.003 372.274 170.542 374.029 167.047C375.109 164.903 375.961 162.651 376.914 160.457C378.662 156.425 380.411 152.392 382.152 148.333C386.521 138.295 390.467 128.062 394.547 117.905C396.344 113.433 398.302 109.03 400.167 104.596C402.333 99.5115 404.485 94.3738 406.651 89.2888C411.657 78.4782 416.562 67.6104 421.669 56.8571C427.287 45.0822 432.999 33.3382 438.826 21.7042C439.558 20.2523 440.317 18.7932 441.057 17.3677C442.271 14.9879 443.436 12.5363 444.783 10.2329C444.969 9.9827 445.182 9.72522 445.401 9.49411C445.537 9.37126 445.647 9.2557 445.783 9.13285C445.873 9.25014 445.928 9.34833 446.017 9.4656C446.032 9.51834 446.054 9.59746 446.068 9.6502C446.096 9.95486 446.09 10.2404 446.091 10.5524C445.813 12.4178 445.348 14.2215 444.89 16.0516C444.366 18.1554 443.963 20.2829 443.431 22.3604C440.547 33.1517 437.19 43.875 433.972 54.5883C432.792 58.5205 431.738 62.5026 430.618 66.4466C429.346 70.9718 427.961 75.4998 426.783 80.0559C426.892 79.6284 427.008 79.2273 427.116 78.7998C420.507 103.596 414.238 128.497 408.09 153.421C406.7 159.057 405.344 164.713 404.074 170.373C403.436 173.19 402.891 176.038 402.312 178.867C402.007 180.428 401.814 181.986 401.535 183.539C401.306 184.965 401.144 186.43 401.061 187.872C401.012 188.822 400.982 189.739 400.993 190.701C401.024 191.942 401.345 193.102 401.745 194.241C401.988 194.912 402.451 195.664 403.313 195.397C404.156 195.164 404.939 194.918 405.764 194.52C406.59 194.121 407.187 193.615 407.875 193.027C409.29 191.784 410.466 190.295 411.601 188.76C414.224 185.224 416.649 181.486 418.955 177.725C423.438 170.353 427.326 162.577 431.499 155.006C434.403 149.717 437.165 144.325 440.001 138.998C446.186 127.322 452.363 115.62 458.506 103.898C463.948 93.5349 469.262 83.1216 474.67 72.7392C477.763 66.8016 480.882 60.8567 484.009 54.9382C486.636 49.9812 489.316 45.0096 492.245 40.2244C493.151 38.7816 494.022 37.3196 494.935 35.9031C494.738 37.0364 494.507 38.1506 494.277 39.2648C494.065 40.3454 494.097 42.92 495.872 42.5708C496.437 42.3577 496.939 42.0201 497.311 41.5197C498.123 40.5571 498.568 39.2982 498.803 38.0976C499.269 35.7827 499.701 33.4488 500.046 31.1104C500.142 30.431 500.185 29.7662 500.254 29.094C500.206 28.5111 500.106 27.9427 500.005 27.3744C499.858 26.535 499.05 26.077 498.404 25.6881C497.63 25.2492 496.709 26.3274 496.282 26.7296C495.752 27.2737 495.214 27.7915 494.718 28.3547C494.047 29.1081 493.507 30.0241 492.944 30.8611C492.401 31.6644 491.891 32.4869 491.381 33.3093C490.605 34.6029 489.788 35.8511 489.037 37.1375C487.442 39.8785 485.873 42.6122 484.345 45.3913C481.536 50.5121 478.788 55.6447 476.08 60.8227C470.401 71.7627 464.809 82.7073 459.096 93.6282C453.483 104.294 447.903 114.98 442.283 125.62C438.333 133.072 434.357 140.532 430.407 147.984C429.007 150.614 427.594 153.191 426.187 155.795C422.082 163.403 418.104 171.062 413.386 178.301C413.302 178.409 413.245 178.51 413.169 178.645C411.417 181.231 409.661 183.903 407.51 186.173C407.211 186.426 406.886 186.686 406.554 186.92C406.298 187.019 406.042 187.118 405.786 187.218C405.751 186.375 405.769 185.519 405.795 184.688C406.49 178.08 408.09 171.562 409.539 165.114C410.773 159.634 412.154 154.17 413.508 148.713C416.552 136.345 419.715 124 422.819 111.644C423.524 108.865 424.204 106.093 424.917 103.341C426.969 95.5904 429.015 87.8135 431.034 80.0438C433.539 71.0607 436.037 62.0512 438.723 53.1035C440.571 46.971 442.385 40.8194 444.199 34.6678C445.562 30.0606 446.891 25.4344 448.093 20.7583C448.515 19.1083 448.904 17.4393 449.233 15.7584C449.577 14.1303 450.021 12.5594 450.372 10.9577C450.749 9.34867 450.853 7.67338 450.817 6.00817C450.783 5.67714 450.748 5.34612 450.686 5.02238C450.691 4.42485 450.531 3.8447 450.212 3.30827C449.859 2.44081 449.331 1.76353 448.808 0.999843C448.366 0.327054 447.382 0.457581 446.863 0.941681C445.418 2.27839 443.978 3.52872 442.838 5.14995C441.66 6.8385 440.805 8.66514 439.863 10.4873C439.092 12.0064 438.314 13.4993 437.517 15.0257C436.113 17.7421 434.75 20.5039 433.354 23.2466C430.469 29.0132 427.67 34.7842 424.819 40.5698C419.459 51.5351 414.353 62.6004 409.255 73.692C406.954 78.7007 404.552 83.6521 402.412 88.7298C399.239 96.2226 396.066 103.715 392.867 111.216C391.014 115.589 389.248 119.967 387.489 124.372C385.803 128.529 384.125 132.712 382.439 136.869C381.704 138.72 380.982 140.623 380.206 142.427C377.229 149.298 374.279 156.161 371.295 163.006C369.742 166.104 368.181 169.176 366.628 172.275C364.575 176.334 362.59 180.433 360.167 184.283C360.391 183.965 360.581 183.629 360.805 183.311C360.007 184.526 359.19 185.774 358.264 186.938C358.387 185.741 358.562 184.528 358.804 183.354L359.601 179.471C359.949 177.756 360.364 176.08 360.78 174.404C362.239 168.918 363.707 163.459 365.253 157.978C366.915 152.095 368.689 146.21 370.378 140.32C373.715 128.808 376.958 117.264 380.348 105.737C381.703 101.103 383.084 96.4625 384.44 91.829C386.027 86.3933 387.554 80.9458 388.807 75.432C389.415 72.7087 390.229 70.0136 390.623 67.2359C390.81 65.9634 390.843 64.6483 390.831 63.3742C390.817 61.7881 390.176 60.2905 389.715 58.8283C389.341 57.6826 388.436 57.2801 387.427 58.0419C386.743 58.5433 386.052 59.0184 385.395 59.5126C384.432 60.2333 383.707 61.2004 383.042 62.1794C382.077 63.6104 381.261 65.1706 380.437 66.7043C379.495 68.5265 378.486 70.3104 377.577 72.1516C376.027 75.3628 374.443 78.5549 372.952 81.7779C369.598 88.9234 366.27 96.0616 363.103 103.269C363.16 103.168 363.191 103.074 363.248 102.973C363.198 103.101 363.122 103.235 363.072 103.363C363.103 103.269 363.141 103.202 363.198 103.101C363.061 103.423 362.923 103.745 362.759 104.074C362.759 104.074 362.771 104.014 362.797 104.007C362.74 104.108 362.709 104.201 362.652 104.302C362.533 104.591 362.388 104.886 362.269 105.175C362.281 105.115 362.326 105.074 362.338 105.014C362.3 105.081 362.288 105.141 362.25 105.208C362.25 105.208 362.25 105.208 362.258 105.235C362.364 105.006 362.464 104.752 362.571 104.523C362.452 104.812 362.307 105.107 362.181 105.369C362.162 105.403 362.151 105.463 362.105 105.504C361.903 105.901 361.734 106.316 361.585 106.698C361.535 106.826 361.485 106.953 361.428 107.054C361.271 107.41 361.107 107.739 360.977 108.087C360.92 108.188 360.889 108.282 360.832 108.383C360.558 108.828 360.358 109.337 360.212 109.832C359.584 111.255 358.957 112.677 358.33 114.1C357.898 115.1 357.333 116.136 356.93 117.241C356.785 117.537 356.647 117.859 356.543 118.2C356.367 118.589 356.192 118.979 356.023 119.394C355.756 119.866 355.523 120.356 355.35 120.858C355.35 120.858 355.358 120.884 355.339 120.918C355.136 121.315 354.968 121.73 354.826 122.139C354.719 122.367 354.612 122.596 354.512 122.85C354.581 122.689 354.657 122.555 354.726 122.394C354.764 122.326 354.776 122.266 354.814 122.199C354.871 122.098 354.895 121.978 354.952 121.877C354.895 121.978 354.845 122.105 354.814 122.199C354.783 122.293 354.745 122.36 354.714 122.454C353.819 124.547 352.983 126.652 352.114 128.737L347.04 141.043C345.159 145.623 343.279 150.203 341.432 154.803C336.173 167.67 330.94 180.531 325.715 193.418C325.052 195.021 324.423 196.643 323.761 198.246C323.578 198.608 323.402 198.998 323.26 199.406C323.329 199.245 323.416 199.051 323.485 198.89C323.409 199.024 323.367 199.178 323.29 199.313C323.298 199.339 323.252 199.38 323.233 199.414C323.183 199.541 323.134 199.668 323.057 199.803C323.096 199.736 323.134 199.668 323.138 199.582C323.1 199.649 323.069 199.743 323.031 199.81C323.1 199.649 323.176 199.515 323.219 199.361C323.119 199.616 322.993 199.877 322.886 200.106C322.81 200.24 322.767 200.394 322.691 200.529C322.729 200.462 322.76 200.368 322.798 200.3C322.691 200.529 322.591 200.784 322.484 201.012C322.282 201.408 322.106 201.798 321.964 202.206C321.914 202.334 321.838 202.468 321.788 202.596C321.781 202.569 321.826 202.528 321.845 202.495C321.826 202.528 321.815 202.588 321.796 202.622C321.612 202.985 321.41 203.382 321.268 203.79C321.173 203.958 321.104 204.119 321.042 204.307C320.897 204.602 320.759 204.924 320.648 205.239C320.598 205.366 320.548 205.494 320.499 205.621C320.373 205.883 320.254 206.171 320.128 206.433C319.83 206.998 319.6 207.601 319.355 208.152C319.298 208.253 319.268 208.346 319.21 208.447C319.142 208.608 319.065 208.743 319.016 208.87C318.787 209.274 318.618 209.69 318.457 210.132C318.445 210.192 318.407 210.259 318.396 210.32C318.315 210.541 318.201 210.743 318.12 210.964C318.208 210.769 318.277 210.608 318.365 210.413C318.277 210.608 318.215 210.795 318.12 210.964C317.918 211.36 317.723 211.783 317.581 212.192C317.462 212.48 317.317 212.776 317.198 213.064C317.16 213.131 317.129 213.225 317.091 213.292C316.939 213.562 316.82 213.85 316.675 214.146C316.568 214.374 316.461 214.602 316.361 214.857C315.995 215.583 315.722 216.34 315.416 217.077C315.13 217.582 314.886 218.133 314.701 218.695C314.839 218.373 314.995 218.017 315.133 217.695C315.076 217.796 315.053 217.916 314.996 218.017C314.889 218.245 314.782 218.474 314.701 218.695C314.701 218.695 314.689 218.755 314.67 218.788C314.67 218.788 314.682 218.728 314.701 218.695C314.689 218.755 314.644 218.796 314.632 218.856C314.632 218.856 314.568 218.93 314.556 218.99L314.663 218.762C314.663 218.762 314.675 218.702 314.694 218.668C314.644 218.796 314.568 218.93 314.518 219.058C314.48 219.125 314.449 219.219 314.411 219.286C314.418 219.312 314.373 219.353 314.354 219.387C314.361 219.413 314.316 219.454 314.297 219.488C314.285 219.548 314.247 219.615 314.228 219.649C314.247 219.615 314.258 219.555 314.277 219.522C314.239 219.589 314.209 219.683 314.17 219.75C313.704 220.731 313.179 221.699 312.679 222.661C311.409 225.142 310.138 227.623 308.868 230.103C306.277 235.192 303.687 240.281 300.592 245.084C299.307 247 297.963 248.905 296.387 250.591C296.16 250.795 295.926 250.974 295.684 251.126C295.289 251.235 294.894 251.344 294.499 251.454C294.3 250.941 294.214 250.425 294.2 249.861C294.235 250.192 294.27 250.523 294.331 250.847C294.306 249.321 294.341 247.807 294.454 246.271C295.076 239.91 296.404 233.637 297.618 227.368C298.657 221.999 299.808 216.627 300.966 211.281C303.529 199.33 306.092 187.378 308.896 175.474C312.045 162.054 315.281 148.638 318.551 135.242C319.968 129.399 321.393 123.582 322.811 117.739C325.552 106.533 328.406 95.3246 330.334 83.9463C330.755 81.4732 331.05 78.9502 331.213 76.4637C331.365 73.838 331.127 71.2352 330.968 68.6105C330.932 67.9676 330.8 66.6698 329.953 66.4784C329.286 66.3223 328.57 66.0943 327.883 66.1711C327.691 66.1957 327.499 66.2204 327.274 66.226C326.841 66.4026 326.448 66.6247 326.071 66.8995C325.361 67.4083 324.741 68.3463 324.315 69.0604C323.919 69.6808 323.61 70.3058 323.275 70.938C322.889 71.6976 322.391 72.46 321.92 73.2151C321.436 74.0302 320.967 74.8981 320.491 75.7396C320.099 76.4728 319.713 77.2324 319.32 77.9656C317.917 80.682 316.506 83.372 315.143 86.1338C312.089 92.316 309.148 98.4955 306.215 104.701C303.502 110.477 300.85 116.264 298.19 122.025C295.68 127.404 293.398 132.89 291.041 138.312C285.608 150.859 280.329 163.448 275.083 176.057C274.915 176.473 274.739 176.862 274.544 177.285C274.72 176.896 274.896 176.506 275.071 176.117C275.06 176.177 275.022 176.244 275.01 176.304C274.922 176.499 274.834 176.694 274.753 176.915C274.803 176.787 274.86 176.686 274.91 176.559C274.853 176.66 274.829 176.78 274.772 176.881C274.596 177.27 274.402 177.693 274.226 178.083C274.237 178.023 274.283 177.982 274.295 177.922C274.394 177.667 274.528 177.431 274.627 177.177C274.52 177.405 274.44 177.626 274.333 177.854C274.325 177.828 274.371 177.787 274.39 177.753C274.321 177.914 274.252 178.075 274.164 178.27C274.164 178.27 274.164 178.27 274.171 178.296C274.084 178.491 273.996 178.686 273.908 178.88C273.996 178.686 274.076 178.465 274.164 178.27C273.924 178.734 273.736 179.183 273.587 179.565C273.556 179.659 273.499 179.76 273.468 179.854C273.468 179.854 273.449 179.887 273.43 179.921C273.323 180.149 273.216 180.378 273.135 180.599C273.116 180.632 273.105 180.693 273.086 180.726C273.086 180.726 273.066 180.76 273.047 180.794C272.791 181.404 272.527 181.988 272.244 182.606C272.107 182.928 271.923 183.291 271.767 183.646C271.614 183.915 271.469 184.211 271.384 184.519C271.277 184.747 271.177 185.002 271.104 185.249C271.073 185.343 271.016 185.444 270.985 185.537C270.672 186.249 270.358 186.96 270.044 187.671C270.132 187.477 270.213 187.256 270.327 187.054C270.22 187.282 270.132 187.477 270.025 187.705C269.964 187.892 269.869 188.061 269.807 188.248C269.876 188.087 269.964 187.892 270.033 187.731C269.669 188.57 269.279 189.416 268.916 190.255C268.916 190.255 268.916 190.255 268.923 190.281C268.835 190.476 268.766 190.637 268.679 190.832C268.728 190.704 268.805 190.57 268.847 190.416C268.602 190.966 268.365 191.543 268.094 192.101C267.93 192.43 267.773 192.786 267.635 193.108C267.421 193.564 267.215 194.047 267.034 194.523C266.958 194.658 266.915 194.811 266.839 194.946C266.63 195.316 266.435 195.739 266.293 196.148C266.148 196.443 266.036 196.758 265.891 197.054C265.834 197.155 265.803 197.248 265.753 197.376C265.582 197.679 265.425 198.034 265.287 198.356C265.092 198.779 264.924 199.195 264.755 199.611C264.637 199.899 264.511 200.161 264.392 200.45C264.392 200.45 264.354 200.517 264.361 200.543C264.304 200.644 264.254 200.772 264.197 200.873C264.235 200.805 264.247 200.745 264.285 200.678C264.228 200.779 264.197 200.872 264.147 201C264.028 201.288 263.883 201.584 263.765 201.872C263.784 201.839 263.803 201.805 263.814 201.745C262.289 205.148 260.636 208.501 259.043 211.866C256.992 216.238 254.947 220.636 252.896 225.008C252.43 225.989 251.851 226.972 251.325 227.941L246.87 236.129C245.589 238.471 244.316 240.839 243.036 243.18C241.229 246.491 239.214 249.66 237.164 252.811C236.142 254.343 235.052 255.837 233.963 257.331C232.725 259.007 231.514 260.677 230.12 262.198C229.348 262.894 228.543 263.571 227.649 264.131C227.622 264.138 227.596 264.146 227.543 264.16C227.454 264.043 227.399 263.945 227.309 263.828C227.273 263.696 227.237 263.564 227.207 263.458C227.17 262.503 227.185 261.534 227.234 260.584C227.689 256.284 228.692 252.118 229.634 247.939C232.539 236.915 235.624 225.926 238.829 214.961C242.44 202.492 246.092 190.069 249.857 177.643C251.412 172.5 252.813 167.314 254.308 162.16C255.4 158.422 256.433 154.673 257.413 150.938C258.889 145.306 260.384 139.64 261.86 134.008C263.41 128.128 264.985 122.242 266.141 116.272C266.745 113.124 267.686 109.968 267.87 106.737C267.965 105.235 267.849 103.791 267.526 102.319C267.316 101.866 267.098 101.387 266.862 100.941C266.691 100.733 266.546 100.517 266.382 100.336C266.021 99.9529 265.66 99.5702 265.292 99.1611C264.752 98.5438 263.937 98.5706 263.347 99.103C262.05 100.257 260.712 101.365 259.53 102.629C258.871 103.322 258.357 104.231 257.814 105.034C257.342 105.79 256.877 106.571 256.439 107.345C255.473 108.975 254.539 110.625 253.58 112.281C252.113 114.873 250.647 117.465 249.207 120.049C245.934 125.952 242.754 131.885 239.556 137.852C236.56 143.422 233.698 149.068 230.769 154.676C227.89 160.157 225.24 165.746 222.495 171.303C221.567 173.178 220.58 175.041 219.693 176.961C218.569 179.458 217.404 181.91 216.28 184.407C213.433 190.617 210.518 196.789 207.772 203.057C207.948 202.667 208.116 202.252 208.292 201.862C204.45 210.421 200.641 218.998 196.858 227.568C196.877 227.534 196.896 227.5 196.908 227.44C195.173 231.214 193.49 234.972 191.789 238.765C190.608 241.363 189.427 243.961 188.253 246.585C187.794 247.592 187.35 248.652 186.858 249.64C184.691 253.902 182.524 258.164 180.356 262.426C177.43 268.147 174.504 273.868 171.007 279.265C169.369 281.648 167.679 284.046 165.683 286.16C164.813 286.912 163.929 287.611 162.963 288.219C162.654 288.332 162.398 288.432 162.094 288.459C162.094 288.459 162.067 288.466 162.034 288.447C161.87 288.265 161.699 288.057 161.581 287.835C161.551 287.729 161.582 287.635 161.579 287.523C161.594 287.575 161.575 287.609 161.563 287.669C161.628 287.083 161.659 286.478 161.698 285.9C162.197 281.248 163.33 276.733 164.429 272.199C170.83 248.596 178.366 225.303 185.542 201.94C187.608 195.265 189.607 188.551 191.64 181.856C193.299 176.372 195.085 170.938 196.803 165.466C198.518 160.08 200.206 154.702 201.886 149.297C203.093 145.357 204.308 141.444 205.515 137.505C205.981 136.013 206.421 134.528 206.854 133.018C207.445 130.952 208.036 128.886 208.586 126.775C209.198 124.477 209.69 122.154 210.208 119.825C210.591 118.442 210.981 117.084 211.304 115.689C211.681 114.08 211.634 112.475 211.328 110.856C211.25 110.679 211.18 110.528 211.103 110.351C211.032 109.888 210.798 109.555 210.42 109.319C209.805 108.836 209.483 108.698 208.694 108.718C206.892 108.762 205.692 110.883 204.997 112.267C203.501 115.265 201.938 118.224 200.442 121.221C197.621 126.913 195.055 132.705 192.429 138.485C187.65 149.091 183.219 159.828 178.796 170.591C173.458 183.48 168.16 196.416 162.89 209.343C160.974 214.104 158.964 218.833 156.955 223.562C154.746 228.801 152.598 234.051 150.329 239.278C147.31 246.303 144.29 253.327 141.245 260.359C136.758 270.174 132.124 279.973 126.205 289.021C125.335 290.284 124.45 291.494 123.573 292.73C122.631 294.041 121.656 295.333 120.565 296.515C120.149 296.857 119.734 297.199 119.27 297.469C118.829 297.62 118.388 297.77 117.941 297.894C117.875 297.657 117.749 297.407 117.684 297.17C117.684 297.17 117.669 297.117 117.662 297.091C118.215 292.736 119.346 288.42 120.379 284.16C123.375 273.054 126.551 261.983 129.914 250.974C133.615 238.935 137.37 226.881 140.978 214.81C144.316 203.609 147.688 192.428 151.172 181.243C152.676 176.427 154.16 171.644 155.603 166.816C156.575 163.566 157.54 160.29 158.506 157.013C159.173 154.813 159.754 152.608 160.328 150.377C160.878 148.266 161.342 146.15 161.652 143.992C161.911 142.16 161.824 140.31 161.832 138.491C161.855 137.86 161.702 137.306 161.357 136.777C160.844 136.153 160.003 136.187 159.413 136.719C158.077 137.94 156.867 139.099 155.938 140.661C155.309 141.772 154.767 142.887 154.206 144.036L151.721 149.096C150.484 151.596 149.288 154.141 148.119 156.679C145.383 162.575 142.673 168.463 139.997 174.37C134.99 185.38 130.009 196.383 125.095 207.423C119.722 219.471 114.357 231.545 108.977 243.566C108.312 245.056 107.56 246.542 106.835 248.02C104.937 251.923 103.02 255.86 101.123 259.764C99.8173 262.425 98.5117 265.086 97.2134 267.773C96.2361 269.775 95.1051 271.735 94.0414 273.732C88.8607 283.399 83.8556 293.187 77.8003 302.357C77.8838 302.249 77.9672 302.141 78.0434 302.006C75.9606 305.138 73.8587 308.303 71.2757 311.062C70.6666 311.628 70.0283 312.088 69.311 312.57C68.8997 312.826 68.4884 313.082 68.0698 313.311C68.0479 313.232 67.9806 313.194 67.9324 313.122C68.094 312.169 68.2893 311.235 68.4509 310.282C68.6522 309.062 68.9472 307.873 69.2421 306.684C69.9228 304.225 70.5508 301.78 71.3251 299.351C72.2153 296.521 73.0718 293.673 73.9956 290.862C76.1439 284.277 78.393 277.75 80.6086 271.203C84.692 259.314 88.7828 247.45 92.8662 235.561C96.4922 224.99 100.085 214.4 103.617 203.799C105.676 197.608 107.802 191.455 109.767 185.234C111.848 178.611 113.948 171.954 116.029 165.331C117.797 159.732 119.292 154.066 120.72 148.362C121.346 146.116 122.066 143.901 122.273 141.573C122.35 140.927 122.392 140.262 122.356 139.619C122.282 139.044 122.201 138.442 122.119 137.84C121.916 137.413 121.739 136.98 121.51 136.56C121.242 136.209 120.949 135.864 120.655 135.52C119.8 134.479 118.677 135.442 118.044 136.128C116.76 137.534 115.574 138.884 114.573 140.496C113.828 141.695 113.149 142.934 112.471 144.172L109.677 149.345C108.251 151.982 106.953 154.67 105.569 157.352C102.933 162.482 100.465 167.707 97.9563 172.887C92.7104 183.65 87.5055 194.459 82.5215 205.349C76.7008 218.032 70.9209 230.76 65.201 243.5C60.1773 254.656 55.2209 265.85 50.2308 277.025C48.4986 280.911 46.6464 284.774 44.8541 288.648L37.9798 303.468C37.3453 304.864 36.5235 306.199 35.788 307.538C34.0958 310.646 32.4373 313.774 30.7524 316.909C29.4411 319.344 28.1299 321.779 26.8259 324.241C26.2047 325.378 25.5235 326.503 24.8687 327.621C22.9994 330.807 21.0365 333.962 18.999 337.053C17.2282 339.672 15.4091 342.219 13.5228 344.729C11.4885 347.421 9.21595 349.866 6.8761 352.274C6.55109 352.534 6.25243 352.787 5.91283 352.995C5.88648 353.002 5.8338 353.017 5.80746 353.024C5.71384 352.993 5.62022 352.962 5.5266 352.931C5.48567 352.886 5.41839 352.848 5.37746 352.802C5.34864 352.186 5.35345 351.588 5.38461 350.983C5.7864 347.721 6.56267 344.582 7.35799 341.409C10.8534 329.342 14.7642 317.443 18.6004 305.48C22.4512 293.569 26.1411 281.59 29.8047 269.618C32.8054 259.76 35.6862 249.878 38.8668 240.055C40.6455 234.594 42.4243 229.134 44.203 223.674C45.4157 219.96 46.6094 216.279 47.7957 212.573C48.2386 211.201 48.6814 209.829 49.1053 208.491C49.7256 206.531 50.3196 204.578 50.8536 202.614C51.326 200.836 51.6857 199.062 52.0382 197.261C52.1792 196.54 52.2297 195.391 51.7166 194.766C51.2445 194.187 50.564 194.29 50.0238 194.695C49.5934 194.985 49.204 195.32 48.8365 195.733C48.5171 196.219 48.1715 196.712 47.8858 197.217C47.622 197.801 47.3582 198.385 47.1281 198.988C46.9522 199.378 46.81 199.786 46.6605 200.168C46.1665 201.355 45.6989 202.535 45.265 203.734C44.485 205.937 43.7577 208.126 43.0377 210.341C41.3894 215.453 39.8275 220.569 38.2056 225.674C37.9637 226.337 37.8681 227.016 37.8588 227.7C37.8921 228.23 37.9647 229.005 38.4648 229.378C37.0248 233.808 35.5775 238.211 34.1375 242.641C33.4292 244.796 32.8146 246.982 32.14 249.156C30.9285 253.181 29.7098 257.181 28.472 261.214C26.7018 267.013 24.8979 272.792 23.1204 278.565C19.4921 290.357 15.6838 302.114 11.8683 313.844C10.0968 319.331 8.31808 324.791 6.62567 330.256C5.66216 333.333 4.75134 336.396 3.84781 339.485C3.43859 340.876 3.08205 342.252 2.75915 343.647C2.13401 346.205 1.49427 348.71 1.14269 351.334C0.867654 353.312 0.712576 355.314 1.00087 357.278C1.0402 357.523 1.07953 357.767 1.11886 358.012C1.30288 358.472 1.47961 358.906 1.68268 359.332L1.89341 359.274L1.97368 359.564ZM5.59388 352.969C5.5355 352.759 5.51077 352.567 5.50508 352.341L5.59388 352.969ZM5.65225 353.18C5.65225 353.18 5.68144 353.286 5.72237 353.331C5.70778 353.279 5.69319 353.226 5.67859 353.173L5.65225 353.18ZM5.73982 353.497C5.76171 353.576 5.78359 353.655 5.83182 353.727C5.80994 353.648 5.76171 353.576 5.71348 353.504L5.73982 353.497ZM78.4341 301.983C78.4341 301.983 78.5557 301.808 78.6128 301.707C78.5557 301.808 78.4912 301.882 78.4341 301.983ZM126.319 289.33C126.319 289.33 126.441 289.154 126.524 289.046C126.467 289.147 126.402 289.222 126.319 289.33ZM161.613 288.876C161.641 288.669 161.643 288.47 161.664 288.237C161.636 288.444 161.634 288.643 161.613 288.876ZM227.034 264.472C227.034 264.472 227.207 264.481 227.319 264.478C227.24 264.5 227.147 264.469 227.034 264.472ZM227.128 263.48C227.128 263.48 227.254 263.729 227.29 263.861C227.228 263.737 227.165 263.612 227.128 263.48ZM227.932 264.337C227.932 264.337 228.129 264.225 228.208 264.204C228.11 264.259 228.011 264.315 227.932 264.337ZM195.027 143.16C195.027 143.16 195.108 142.939 195.165 142.838C195.241 142.704 195.284 142.55 195.36 142.415C195.26 142.67 195.127 142.906 195.027 143.16ZM206.758 116.067C206.854 116.211 206.924 116.362 206.968 116.52C206.898 116.369 206.828 116.218 206.758 116.067ZM210.067 121.057C210.121 120.843 210.175 120.629 210.249 120.382C210.194 120.595 210.14 120.809 210.067 121.057ZM263.676 202.578C263.757 202.357 263.864 202.129 263.952 201.934C263.845 202.162 263.764 202.383 263.657 202.612L263.676 202.578ZM264.009 201.833C264.128 201.545 264.265 201.223 264.411 200.927C264.265 201.223 264.154 201.537 264.009 201.833ZM267.261 204.567C267.387 204.305 267.506 204.017 267.625 203.728C267.567 203.829 267.537 203.923 267.479 204.024C267.472 203.998 267.518 203.957 267.537 203.923C267.43 204.151 267.323 204.38 267.242 204.601L267.261 204.567ZM267.827 203.332C267.827 203.332 267.839 203.272 267.858 203.238C267.858 203.238 267.846 203.298 267.827 203.332ZM267.877 203.204C267.877 203.204 267.926 203.077 267.945 203.043C267.945 203.043 267.945 203.043 267.938 203.017C267.9 203.084 267.888 203.144 267.85 203.212L267.877 203.204ZM268.221 202.399C268.221 202.399 268.221 202.399 268.228 202.426L268.221 202.399ZM268.221 202.399C268.221 202.399 268.24 202.366 268.259 202.332C268.259 202.332 268.259 202.332 268.24 202.366L268.221 202.399ZM274.791 177.358C274.791 177.358 274.784 177.332 274.803 177.298C274.803 177.298 274.81 177.325 274.791 177.358ZM263.318 108.224C263.422 108.394 263.5 108.571 263.551 108.756C263.473 108.579 263.396 108.401 263.318 108.224ZM313.845 221.033C313.983 220.711 314.12 220.388 314.258 220.066C314.258 220.066 314.258 220.066 314.265 220.093C314.128 220.415 313.983 220.711 313.864 220.999L313.845 221.033ZM317.586 222.666C317.586 222.666 317.617 222.572 317.662 222.531C317.662 222.531 317.67 222.558 317.651 222.591C317.651 222.591 317.639 222.651 317.62 222.685L317.586 222.666ZM319.628 207.906C319.628 207.906 319.727 207.651 319.785 207.55C319.735 207.678 319.685 207.805 319.628 207.906ZM322.83 210.767C322.899 210.606 322.968 210.445 323.037 210.284C322.968 210.445 322.88 210.64 322.811 210.801L322.83 210.767ZM323.586 198.947C323.586 198.947 323.598 198.887 323.624 198.879C323.624 198.879 323.617 198.853 323.636 198.819C323.636 198.819 323.617 198.853 323.598 198.887C323.598 198.887 323.605 198.913 323.586 198.947ZM323.636 198.819C323.636 198.819 323.743 198.591 323.793 198.464C323.781 198.524 323.736 198.565 323.724 198.625C323.686 198.692 323.674 198.752 323.636 198.819ZM323.95 198.108C323.95 198.108 324 197.981 324.038 197.913C324 197.981 323.988 198.041 323.95 198.108ZM326.691 79.3898C326.691 79.3898 326.711 79.157 326.716 79.0706C326.719 79.1834 326.695 79.3034 326.691 79.3898ZM357.748 187.223C357.748 187.223 357.827 187.201 357.86 187.22C357.86 187.22 357.781 187.242 357.748 187.223ZM358.2 188.858C358.2 188.858 358.228 188.652 358.225 188.539C358.228 188.652 358.197 188.745 358.2 188.858ZM358.364 187.195C358.514 187.125 358.639 187.062 358.789 186.992C358.653 187.115 358.503 187.185 358.371 187.221L358.364 187.195ZM360.694 175.222C360.694 175.222 360.768 174.975 360.791 174.855C360.768 174.975 360.718 175.102 360.694 175.222ZM357.861 125.728C357.861 125.728 357.929 125.567 357.968 125.5C358.006 125.432 358.017 125.372 358.056 125.305C357.979 125.44 357.937 125.593 357.861 125.728ZM363.115 103.72C363.115 103.72 363.172 103.619 363.183 103.559C363.172 103.619 363.126 103.66 363.115 103.72ZM366.229 106.776C366.229 106.776 366.248 106.742 366.267 106.709C366.298 106.615 366.336 106.548 366.367 106.454C366.355 106.514 366.309 106.555 366.298 106.615C366.329 106.521 366.386 106.42 366.424 106.353C366.481 106.252 366.531 106.125 366.562 106.031C366.504 106.132 366.474 106.226 366.416 106.327C366.428 106.267 366.474 106.226 366.485 106.166C366.485 106.166 366.474 106.226 366.447 106.233C366.428 106.267 366.416 106.327 366.397 106.36C366.348 106.488 366.271 106.622 366.229 106.776ZM425.131 102.884C425.131 102.884 425.204 102.637 425.228 102.517C425.204 102.637 425.154 102.764 425.131 102.884ZM444.474 10.8578C444.474 10.8578 444.653 10.5813 444.736 10.473C444.66 10.6077 444.558 10.7496 444.474 10.8578ZM446.159 11.4136C446.168 11.2408 446.177 11.068 446.212 10.8879C446.203 11.0607 446.195 11.2335 446.159 11.4136ZM446.316 10.5468C446.27 10.2758 446.25 9.99751 446.203 9.72651C446.276 9.99022 446.296 10.2685 446.316 10.5468ZM445.968 9.08183C445.99 9.16094 446.012 9.24005 446.06 9.31189C446.038 9.23278 445.99 9.16094 445.949 9.11549L445.968 9.08183ZM383.56 80.3475C383.56 80.3475 383.56 80.3475 383.567 80.3739L383.56 80.3475ZM366.386 106.42C366.386 106.42 366.378 106.394 366.397 106.36C366.405 106.387 366.359 106.428 366.34 106.461C366.34 106.461 366.352 106.401 366.371 106.368L366.386 106.42ZM366.053 107.165C366.053 107.165 365.958 107.334 365.927 107.427C365.889 107.495 365.877 107.555 365.839 107.622C365.908 107.461 365.984 107.326 366.027 107.173L366.053 107.165ZM363.183 103.559C363.183 103.559 363.214 103.465 363.26 103.424C363.241 103.458 363.229 103.518 363.21 103.552C363.248 103.484 363.279 103.391 363.317 103.323C363.217 103.578 363.091 103.84 362.991 104.095C363.049 103.994 363.079 103.9 363.136 103.799C363.087 103.926 363.029 104.027 362.98 104.155C362.98 104.155 362.942 104.222 362.949 104.248C363.029 104.027 363.136 103.799 363.224 103.604L363.183 103.559ZM362.87 104.27C362.87 104.27 362.927 104.169 362.939 104.109C362.939 104.109 362.939 104.109 362.931 104.083C362.893 104.15 362.882 104.21 362.843 104.278L362.87 104.27ZM362.839 104.364C362.839 104.364 362.908 104.203 362.946 104.136C362.927 104.169 362.915 104.229 362.896 104.263C362.896 104.263 362.884 104.323 362.858 104.33C362.858 104.33 362.877 104.297 362.896 104.263C362.77 104.525 362.651 104.813 362.525 105.075C362.632 104.847 362.732 104.592 362.839 104.364ZM354.83 122.564C354.83 122.564 354.899 122.403 354.956 122.302C354.956 122.302 354.906 122.429 354.868 122.496C354.799 122.657 354.73 122.818 354.654 122.953C354.616 123.02 354.578 123.088 354.573 123.174C354.661 122.979 354.749 122.785 354.837 122.59L354.83 122.564ZM323.356 199.55C323.318 199.617 323.306 199.677 323.268 199.745C323.306 199.677 323.318 199.617 323.363 199.576L323.356 199.55ZM322.102 202.395C322.102 202.395 322.014 202.59 321.964 202.717C322.021 202.616 322.044 202.496 322.102 202.395ZM318.373 221C318.373 221 318.381 221.027 318.361 221.06C318.304 221.161 318.281 221.281 318.224 221.382C318.186 221.45 318.155 221.543 318.117 221.611C318.205 221.416 318.285 221.195 318.373 221ZM318.117 221.611C318.117 221.611 318.017 221.865 317.96 221.966C318.01 221.839 318.06 221.712 318.117 221.611ZM317.363 223.295C317.363 223.295 317.295 223.456 317.256 223.524C317.295 223.456 317.325 223.363 317.363 223.295ZM314.731 219.112L314.769 219.045C314.769 219.045 314.75 219.079 314.731 219.112ZM278.554 179.071C278.554 179.071 278.623 178.91 278.654 178.816C278.604 178.944 278.528 179.078 278.486 179.232C278.497 179.172 278.543 179.131 278.554 179.071ZM278.673 178.783C278.673 178.783 278.623 178.91 278.585 178.977C278.585 178.977 278.547 179.045 278.554 179.071C278.535 179.105 278.524 179.165 278.505 179.198C278.428 179.333 278.386 179.487 278.31 179.621C278.36 179.494 278.436 179.359 278.486 179.232C278.379 179.46 278.279 179.715 278.172 179.943C278.348 179.554 278.524 179.165 278.673 178.783ZM277.996 180.333C277.996 180.333 277.984 180.393 277.958 180.4C277.958 180.4 277.977 180.366 277.996 180.333ZM277.958 180.4C277.958 180.4 277.958 180.4 277.939 180.434C277.939 180.434 277.965 180.426 277.984 180.393L277.958 180.4ZM277.939 180.434C277.92 180.467 277.901 180.501 277.889 180.561C277.908 180.527 277.927 180.494 277.939 180.434ZM277.939 180.434C277.939 180.434 277.851 180.628 277.794 180.729C277.737 180.83 277.713 180.95 277.656 181.051C277.744 180.857 277.851 180.628 277.939 180.434ZM274.492 178.123C274.492 178.123 274.473 178.156 274.454 178.19C274.461 178.216 274.416 178.257 274.404 178.317C274.442 178.25 274.454 178.19 274.492 178.123ZM274.297 178.546C274.297 178.546 274.373 178.411 274.385 178.351C274.347 178.418 274.309 178.486 274.278 178.579L274.297 178.546ZM270.113 188.022C270.113 188.022 270.113 188.022 270.106 187.995C270.106 187.995 270.113 188.022 270.094 188.055L270.113 188.022ZM268.977 190.579C268.977 190.579 268.977 190.579 268.97 190.552C269.058 190.358 269.138 190.137 269.226 189.942C269.1 190.204 269.001 190.459 268.875 190.721C268.894 190.687 268.905 190.627 268.951 190.586L268.977 190.579ZM268.29 202.238C268.29 202.238 268.283 202.212 268.302 202.178L268.29 202.238ZM267.663 203.661C267.651 203.721 267.606 203.762 267.594 203.822C267.606 203.762 267.644 203.695 267.663 203.661ZM267.632 203.755C267.544 203.949 267.456 204.144 267.349 204.372C267.437 204.178 267.525 203.983 267.632 203.755ZM267.349 204.372C267.349 204.372 267.33 204.406 267.311 204.44C267.311 204.44 267.323 204.38 267.349 204.372ZM267.311 204.44C267.242 204.601 267.147 204.769 267.085 204.956C267.154 204.795 267.223 204.634 267.311 204.44ZM200.201 230.731L199.918 231.349C200.006 231.154 200.094 230.959 200.201 230.731Z" fill="#F96C85"/>
</svg>
