<svg width="566" height="287" viewBox="0 0 566 287" fill="none" xmlns="http://www.w3.org/2000/svg">
<path d="M0.449546 60.9831L0.35561 61.775C0.299243 62.2502 0.357946 62.7105 0.586823 63.1295C0.785075 63.7669 1.59422 64.1502 2.15363 64.4097C2.8979 64.7428 3.54588 64.9324 4.36402 65.0806C5.24215 65.2406 6.11049 65.3239 7.00045 65.4238C8.24542 65.5561 9.50018 65.7651 10.7619 65.8758C14.7869 66.2548 18.8586 66.082 22.8584 65.9573C27.3834 65.8236 31.9173 65.4548 36.4032 65.0142C44.3559 64.2446 52.2687 62.8562 60.1677 61.6646C62.0807 61.3795 64.0251 61.1879 65.9401 60.7661C68.9962 60.1195 72.0522 59.4729 75.1082 58.8263C81.3904 57.4917 87.6873 56.2722 93.9381 54.8442C119.248 49.0927 144.563 43.3795 169.946 37.8916C181.254 35.462 192.582 33.1859 203.942 31.0032C210.145 29.8152 216.37 28.644 222.617 27.4895C225.436 26.9708 228.264 26.529 231.105 26.0271C232.306 25.8141 233.517 25.6778 234.739 25.4816C236.997 25.1521 239.251 24.7842 241.502 24.5531C241.814 24.552 242.147 24.5676 242.481 24.5832C242.117 24.786 241.731 24.972 241.362 25.1365C240.135 25.6062 238.909 26.076 237.687 26.5841C236.261 27.1769 234.879 27.8031 233.454 28.3959C225.124 31.7096 216.598 34.561 208.147 37.5393C202.886 39.386 197.631 41.1343 192.321 42.9092C180.597 46.8155 168.872 50.7219 157.095 54.518C144.664 58.5348 132.232 62.5516 119.796 66.5301C114.646 68.1868 109.492 69.8052 104.369 71.5171C101.268 72.5788 98.1362 73.5471 95.0406 74.6472C92.2636 75.6478 89.4336 76.5383 86.7048 77.6107C84.8122 78.3611 82.9195 79.1115 81.0269 79.8619C78.4082 80.8811 75.9389 82.1541 73.3998 83.3386C72.782 83.691 72.1642 84.0435 71.5896 84.4293C71.0966 84.8437 70.642 85.2531 70.1923 85.7009C69.9176 86.1456 69.6596 86.5687 69.445 87.0253C69.2735 87.5152 69.1021 88.0052 68.9306 88.4952C68.6331 89.3718 69.392 89.8201 70.0498 90.0864C70.9956 90.4716 71.8864 90.8835 72.8155 91.2903C73.7229 91.6805 74.6443 91.8739 75.6208 92.0407C77.5137 92.3626 79.399 92.471 81.3127 92.4978C83.2265 92.5245 85.1375 92.3762 87.0582 92.3046C89.5809 92.214 92.0721 92.03 94.58 91.8243C99.4592 91.4111 104.314 90.8061 109.171 90.0643C113.435 89.4182 117.7 88.7721 121.943 88.1093C124.465 87.7068 127.023 87.4362 129.514 86.9404C136.463 85.637 143.423 84.2736 150.372 82.9703C152.161 82.6233 153.937 82.3363 155.737 81.9292C158.881 81.2128 162.026 80.4963 165.171 79.7798C178.243 76.8114 191.353 73.8381 204.442 70.848C210.467 69.488 216.52 68.183 222.55 66.8613C227.916 65.6835 233.257 64.4507 238.611 63.3329C242.748 62.4498 246.902 61.545 251.065 60.7169C253.232 60.2822 255.433 59.8042 257.604 59.4078C258.975 59.1535 260.325 58.8824 261.674 58.6113C261.25 58.8023 260.788 58.9983 260.364 59.1893C253.524 61.9603 246.525 64.4009 239.618 66.9467C233.343 69.2552 227.01 71.4151 220.704 73.6301C214.941 75.6777 209.177 77.862 203.402 79.9696C197.985 81.9727 192.58 83.9159 187.158 85.8807C175.401 90.1421 163.596 94.3318 151.853 98.7084C146.678 100.622 141.464 102.54 136.326 104.586C133.079 105.881 129.833 107.176 126.613 108.526C124.951 109.246 123.283 109.929 121.664 110.683C119.803 111.527 117.978 112.502 116.165 113.418C115.25 113.887 114.371 114.487 113.558 115.138C112.55 115.95 112.008 117.053 111.39 118.166C111.058 118.774 110.631 119.55 111.404 120.113C112.13 120.605 112.822 121.14 113.547 121.631C114.23 122.089 115.101 122.348 115.89 122.578C117.628 123.056 119.547 123.121 121.324 123.146C125.676 123.19 130.05 122.94 134.361 122.502C143.119 121.629 151.77 119.912 160.362 118.046C167.819 116.443 175.237 114.534 182.69 112.756C187.625 111.556 192.538 110.339 197.468 109.1C203.381 107.618 209.303 106.213 215.206 104.654C239.843 98.2096 264.465 91.6497 289.257 85.8088C294.223 84.7021 299.151 83.6002 304.148 82.5869C306.54 82.0842 308.942 81.6582 311.361 81.2106C312.293 81.0321 313.209 80.8754 314.146 80.7353C314.453 80.6958 314.738 80.6396 315.045 80.6001C314.638 80.7695 314.192 80.9438 313.79 81.1515C312.001 81.9471 310.254 82.7762 308.422 83.5383C300.41 86.7525 292.247 89.5379 284.12 92.4551C278.659 94.4248 273.184 96.2794 267.697 98.1941C262.546 99.9876 257.394 101.781 252.252 103.651C246.385 105.79 240.517 107.93 234.627 110.052C222.084 114.57 209.537 119.051 196.967 123.514C191.672 125.404 186.403 127.349 181.139 129.333C174.908 131.674 168.698 134.033 162.56 136.655C161.267 137.212 159.973 137.768 158.679 138.324C155.702 139.585 152.861 141.159 150.139 142.893C148.98 143.588 147.739 144.255 146.876 145.282C146.13 146.158 145.646 147.098 145.498 148.228C145.448 148.605 145.48 149.01 145.589 149.406C145.729 149.583 145.852 149.781 145.991 149.958C146.193 150.322 146.506 150.633 146.881 150.819C147.465 151.27 148.297 151.533 148.977 151.816C149.738 152.128 150.539 152.298 151.307 152.511C154.391 153.303 157.707 153.169 160.875 153.093C164.551 153.03 168.248 152.671 171.909 152.181C178.967 151.273 185.987 149.921 193.006 148.706C194.761 148.402 196.525 148.175 198.249 147.778C200.636 147.237 203.045 146.713 205.415 146.193C211.309 144.87 217.234 143.64 223.101 142.261C222.893 142.307 222.684 142.354 222.476 142.4C231.799 140.304 241.08 138.174 250.393 136.001C249.976 136.094 249.542 136.208 249.125 136.301C255.853 134.792 262.612 133.376 269.345 131.906C271.545 131.428 273.774 130.868 276.001 130.445C278.875 129.9 281.754 129.393 284.65 128.865C290.496 127.781 296.354 126.638 302.254 125.664C308.537 124.641 314.815 123.58 321.124 122.613C326.727 121.756 332.351 120.915 337.963 120.135C340.259 119.8 342.578 119.482 344.879 119.186C348.413 118.771 351.97 118.235 355.519 117.935C356.121 117.916 356.728 117.935 357.318 117.976C357.759 118.075 358.201 118.175 358.642 118.274C358.635 118.372 358.607 118.454 358.6 118.552C358.574 118.809 358.488 119.054 358.403 119.299C358.319 119.407 358.252 119.494 358.168 119.602C357.836 119.898 357.498 120.156 357.139 120.397C355.628 121.235 354.059 121.924 352.451 122.618C350.624 123.419 348.815 124.373 346.993 125.212C343.071 127.023 339.022 128.596 335.043 130.258C328.798 132.797 322.535 135.357 316.29 137.896C310.638 140.202 304.897 142.267 299.205 144.403C288.253 148.56 277.234 152.493 266.278 156.612C260.178 158.918 254.078 161.223 247.961 163.55C242.494 165.619 237.026 167.687 231.612 169.865C228.519 171.14 225.357 172.327 222.312 173.674C217.274 175.901 212.21 178.073 207.736 181.359C206.989 181.923 206.132 182.54 205.542 183.259C205.358 183.498 205.174 183.736 204.989 183.974C204.753 184.414 204.534 184.832 204.297 185.272C204.004 185.875 204.082 186.489 204.144 187.124C204.283 187.301 204.406 187.5 204.546 187.677C204.765 188.019 205.072 188.291 205.485 188.472C206.861 189.328 208.596 189.632 210.168 189.878C212.36 190.259 214.548 190.289 216.763 190.238C220.948 190.187 225.156 190.016 229.323 189.675C231.733 189.463 234.143 189.25 236.516 188.906C241.394 188.181 246.294 187.473 251.173 186.747C253.815 186.369 256.44 186.011 259.024 185.484L274.616 182.25C277.693 181.62 280.792 181.007 283.844 180.322C283.959 180.307 284.09 180.271 284.184 180.239C284.316 180.203 284.469 180.183 284.601 180.147C285.061 180.087 285.517 179.99 285.962 179.815C285.962 179.815 285.979 179.794 286.017 179.789C286.149 179.752 286.303 179.733 286.451 179.675C286.319 179.711 286.166 179.731 286.034 179.767C286.204 179.726 286.374 179.684 286.528 179.665C286.967 179.589 287.405 179.513 287.834 179.36C287.851 179.339 287.911 179.35 287.928 179.329C288.289 179.263 288.647 179.158 289.008 179.092C289.43 179.038 289.826 178.928 290.221 178.819C290.391 178.778 290.545 178.758 290.715 178.717C291.132 178.624 291.549 178.531 291.966 178.439C292.388 178.384 292.784 178.275 293.179 178.166C293.349 178.124 293.503 178.105 293.651 178.046C294.749 177.788 295.83 177.552 296.927 177.294C296.51 177.386 296.077 177.5 295.66 177.593C297.004 177.284 298.327 176.958 299.655 176.67C299.238 176.762 298.804 176.877 298.387 176.969C299.106 176.799 299.808 176.65 300.527 176.479C300.583 176.453 300.643 176.465 300.698 176.438C301.295 176.381 301.899 176.225 302.459 176.036C302.459 176.036 302.498 176.031 302.536 176.026C303.54 175.799 304.545 175.573 305.527 175.329C306.124 175.272 306.711 175.138 307.25 174.932C307.421 174.891 307.552 174.854 307.723 174.813C307.986 174.74 308.271 174.684 308.535 174.611C308.403 174.647 308.271 174.684 308.118 174.704C308.365 174.652 308.612 174.601 308.875 174.528C308.952 174.518 309.007 174.492 309.084 174.482C309.084 174.482 309.045 174.487 309.007 174.492C309.007 174.492 309.045 174.487 309.084 174.482C309.177 174.45 309.292 174.436 309.386 174.404C309.331 174.431 309.271 174.419 309.216 174.445C309.216 174.445 309.216 174.445 309.254 174.441C309.594 174.358 309.935 174.275 310.275 174.192C309.973 174.27 309.649 174.331 309.347 174.409C309.479 174.373 309.633 174.353 309.765 174.316C310.313 174.187 310.824 174.063 311.373 173.934C311.296 173.944 311.241 173.97 311.164 173.98C311.087 173.99 311.032 174.017 310.956 174.027C310.994 174.022 311.049 173.995 311.109 174.007C311.016 174.038 310.901 174.053 310.807 174.085C311.016 174.038 311.263 173.987 311.471 173.941C311.586 173.926 311.68 173.895 311.811 173.858C311.718 173.89 311.641 173.899 311.548 173.931C315.483 172.996 319.426 171.962 323.351 170.95C328.698 169.619 334.023 168.271 339.349 166.923C343.126 165.969 346.973 165.104 350.776 164.205C355.239 163.124 359.707 162.082 364.152 161.022C373.524 158.998 382.884 157.033 392.27 155.124C396.983 154.167 401.722 153.265 406.482 152.379C408.5 152.003 410.524 151.665 412.547 151.326C413.731 151.135 414.954 150.939 416.138 150.747C417.722 150.485 419.317 150.299 420.933 150.131C421.683 150.054 422.445 149.916 423.196 149.839C421.755 151.078 420.31 152.277 418.73 153.338C415.363 155.37 411.842 157.11 408.338 158.828C404.194 160.882 399.944 162.715 395.695 164.549C392.221 166.048 388.731 167.57 385.252 169.031C379.153 171.648 373.049 174.227 366.95 176.844C354.879 182.004 342.829 187.181 330.789 192.434C319.619 197.322 308.523 202.336 297.42 207.45C291.935 209.988 286.433 212.548 280.936 215.146C275.307 217.781 269.697 220.569 264.259 223.628C262.896 224.408 261.555 225.204 260.224 226.077C259.086 226.789 257.985 227.632 256.901 228.454C256.413 228.907 255.947 229.376 255.48 229.846C255.062 230.387 254.713 231.017 254.403 231.642C254.026 232.353 253.694 232.961 254.418 233.589C254.838 233.984 255.297 234.373 255.74 234.784C256.355 235.329 257.269 235.621 258.02 235.855C258.625 236.012 259.242 236.108 259.858 236.204C260.792 236.337 261.677 236.399 262.595 236.417C265.859 236.485 269.171 236.312 272.424 235.991C275.853 235.667 279.252 235.113 282.646 234.52C286.254 233.919 289.84 233.302 293.443 232.663C295.121 232.369 296.804 232.114 298.455 231.765C298.455 231.765 298.532 231.755 298.57 231.75C299.03 231.691 299.486 231.593 299.931 231.419C300.102 231.378 300.272 231.336 300.425 231.317C300.408 231.338 300.348 231.326 300.31 231.331C300.404 231.3 300.519 231.285 300.612 231.254C300.689 231.244 300.782 231.212 300.859 231.202C300.859 231.202 300.936 231.192 300.952 231.171C301.046 231.139 301.161 231.124 301.238 231.115C301.161 231.124 301.067 231.156 300.991 231.166C301.238 231.115 301.485 231.063 301.748 230.99C302.17 230.936 302.604 230.822 303.016 230.691C303.186 230.649 303.34 230.63 303.488 230.572C303.872 230.522 304.267 230.413 304.663 230.304C304.679 230.282 304.739 230.294 304.794 230.267C304.965 230.226 305.118 230.206 305.288 230.165C305.612 230.103 305.914 230.026 306.232 229.926C306.364 229.89 306.534 229.848 306.688 229.829C306.99 229.751 307.275 229.695 307.577 229.617C308.169 229.521 308.735 229.37 309.3 229.22C309.47 229.178 309.641 229.137 309.832 229.112C309.986 229.092 310.118 229.056 310.211 229.024C310.633 228.97 311.067 228.856 311.496 228.703C311.589 228.672 311.666 228.662 311.759 228.63C311.968 228.584 312.176 228.538 312.385 228.491C312.845 228.432 313.317 228.313 313.785 228.155C314.087 228.077 314.372 228.021 314.674 227.943C314.729 227.917 314.806 227.907 314.844 227.902C315.151 227.862 315.474 227.801 315.776 227.724C316.023 227.672 316.287 227.599 316.534 227.548C317.334 227.406 318.142 227.166 318.938 226.985C319.513 226.911 320.1 226.777 320.623 226.593C320.491 226.63 320.359 226.666 320.206 226.686C320.337 226.649 320.469 226.613 320.623 226.593L320.754 226.557C320.925 226.515 321.095 226.474 321.248 226.454C321.265 226.433 321.325 226.444 321.363 226.439C321.38 226.418 321.44 226.43 321.478 226.425C321.61 226.388 321.764 226.368 321.912 226.31C322.236 226.249 322.554 226.15 322.878 226.089C322.84 226.094 322.785 226.12 322.746 226.125C324.865 225.619 326.974 225.035 329.066 224.474C333.425 223.347 337.802 222.2 342.156 221.035C346.873 219.804 351.606 218.552 356.361 217.317C369.791 213.795 383.243 210.29 396.678 206.807C398.282 206.387 399.88 205.928 401.488 205.545C401.812 205.484 402.152 205.401 402.492 205.319C402.663 205.277 402.833 205.236 403.041 205.189C403.327 205.133 403.612 205.077 403.875 205.004C404.276 204.933 404.693 204.841 405.083 204.693C405.138 204.666 405.215 204.656 405.253 204.651C405.671 204.559 406.104 204.445 406.543 204.369C407.058 204.283 407.552 204.18 407.943 204.033C409.194 203.755 410.423 203.46 411.691 203.16L415.44 202.288C415.44 202.288 415.478 202.283 415.516 202.278C416.075 202.226 416.662 202.092 417.201 201.886C417.618 201.794 418.014 201.684 418.431 201.592C418.601 201.55 418.793 201.525 418.963 201.484C419.248 201.428 419.55 201.35 419.852 201.272C420.022 201.231 420.154 201.194 420.324 201.153C420.192 201.189 420.077 201.204 419.946 201.241L420.154 201.194C420.154 201.194 420.022 201.231 419.984 201.236C419.984 201.236 420.231 201.184 420.363 201.148C420.571 201.102 420.758 201.039 420.95 201.014C420.856 201.046 420.741 201.06 420.648 201.092C420.741 201.06 420.818 201.05 420.933 201.036C420.916 201.057 420.856 201.046 420.818 201.05C420.856 201.046 420.912 201.019 420.95 201.014C421.005 200.987 421.065 200.999 421.12 200.973C428.04 199.439 434.959 197.906 441.889 196.449C445.438 195.7 448.998 195.027 452.574 194.333C453.907 194.084 455.24 193.834 456.577 193.623C459.138 193.216 461.688 192.732 464.263 192.44C464.4 192.441 464.536 192.443 464.673 192.445C464.875 192.497 465.076 192.549 465.278 192.601C465.077 192.861 464.876 193.121 464.675 193.381C464.443 193.547 464.194 193.735 463.962 193.902C462.235 194.884 460.463 195.658 458.63 196.42C456.611 197.245 454.639 198.142 452.624 199.006C452.883 198.895 453.142 198.783 453.422 198.689C453.163 198.8 452.866 198.916 452.608 199.028C444.398 202.365 436.067 205.367 427.784 208.44C422.053 210.581 416.332 212.799 410.606 214.978C399.247 219.306 387.83 223.484 376.46 227.872C373.654 228.954 370.853 230.074 368.031 231.178C365.341 232.246 362.629 233.297 359.97 234.458C357.107 235.703 354.288 236.982 351.456 238.321C349.875 239.071 348.374 239.985 346.873 240.9C346.188 241.339 345.074 241.93 344.62 242.651C344.503 242.803 344.429 242.988 344.295 243.161C343.918 243.561 343.801 244.024 343.908 244.556C343.915 245.218 344.074 245.549 344.509 246.058C344.584 246.185 344.697 246.307 344.788 246.412C345.228 246.648 345.667 246.884 346.102 247.082C346.941 247.247 347.738 247.378 348.601 247.423C349.721 247.493 350.889 247.324 352.016 247.296C356.738 247.176 361.416 246.262 366.067 245.43C369.917 244.739 373.728 244.054 377.578 243.364C379.941 242.943 382.254 242.275 384.581 241.722C388.857 240.704 393.132 239.686 397.425 238.647C408.078 236.126 418.635 233.149 429.211 230.327C433.867 229.084 438.565 228.012 443.231 226.846C448.6 225.532 454.002 224.174 459.37 222.86C471.024 220.386 482.663 217.796 494.331 215.438C507.124 212.876 519.948 210.407 532.753 208.097C534.354 207.813 535.977 207.546 537.561 207.283C540.193 206.828 542.854 206.29 545.506 205.988C545.817 205.987 546.151 206.003 546.467 206.04C546.647 206.075 546.806 206.094 546.986 206.129C546.945 206.271 546.9 206.374 546.859 206.516C546.826 206.559 546.776 206.624 546.742 206.668C546.515 206.872 546.283 207.039 546.034 207.227C544.374 208.122 542.652 208.831 540.913 209.562C538.915 210.404 536.97 211.356 534.988 212.176C524.622 216.337 514.027 220.078 503.523 223.925C499.668 225.338 495.849 226.882 492.021 228.349C487.636 230.044 483.182 231.65 478.829 233.438C479.236 233.269 479.627 233.121 480.034 232.952C456.225 242.527 432.537 252.437 408.902 262.457C403.558 264.724 398.218 267.029 392.926 269.406C390.289 270.583 387.683 271.854 385.072 273.087C383.64 273.778 382.277 274.558 380.866 275.266C379.587 275.937 378.318 276.685 377.114 277.484C376.324 278.014 375.572 278.54 374.809 279.126C373.835 279.894 373.098 280.847 372.427 281.849C372.035 282.446 371.711 283.267 372.441 283.797C373.133 284.332 373.799 284.812 374.613 285.234C375.427 285.655 376.19 285.83 377.073 286.028C378.916 286.415 380.813 286.464 382.722 286.452C387.125 286.432 391.57 286.133 395.963 285.724C404.551 284.892 413.106 283.343 421.667 282.144C427.641 281.297 433.612 280.276 439.576 279.353C452.629 277.303 465.698 275.232 478.763 273.122C490.32 271.265 501.841 269.276 513.392 267.38C519.999 266.297 526.627 265.229 533.239 264.184C538.781 263.315 544.367 262.479 549.953 261.956C551.651 261.815 553.343 261.637 555.024 261.518C553.999 262.04 552.969 262.523 551.939 263.007C550.947 263.485 548.906 265.054 550.249 266.265C550.758 266.59 551.33 266.789 551.953 266.787C553.21 266.859 554.485 266.461 555.587 265.93C557.718 264.915 559.845 263.861 561.924 262.736C562.525 262.405 563.083 262.041 563.663 261.693C564.101 261.306 564.495 260.884 564.89 260.463C565.473 259.842 565.356 258.921 565.28 258.171C565.167 257.289 563.752 257.198 563.174 257.097C562.421 256.998 561.684 256.879 560.936 256.819C559.931 256.734 558.873 256.85 557.866 256.902C556.898 256.949 555.934 257.034 554.97 257.119C553.469 257.273 551.98 257.367 550.501 257.538C547.35 257.904 544.222 258.287 541.081 258.73C535.299 259.552 529.543 260.429 523.776 261.366C511.615 263.378 499.502 265.463 487.337 267.437C475.435 269.339 463.537 271.279 451.652 273.159C443.319 274.465 434.965 275.754 426.632 277.06C423.689 277.517 420.778 277.93 417.851 278.365C409.3 279.64 400.785 281.048 392.163 281.611C392.026 281.609 391.911 281.624 391.758 281.644C388.638 281.792 385.447 281.988 382.34 281.627C381.959 281.54 381.556 281.436 381.169 281.31C380.936 281.164 380.703 281.019 380.47 280.873C381.124 280.341 381.82 279.842 382.5 279.364C388.206 275.959 394.382 273.332 400.412 270.626C405.538 268.329 410.739 266.159 415.918 263.972C427.642 258.993 439.419 254.125 451.17 249.201C453.817 248.1 456.443 246.983 459.073 245.904C466.507 242.9 473.958 239.875 481.387 236.833C490.079 233.453 498.788 230.052 507.559 226.837C513.575 224.64 519.587 222.405 525.598 220.169C530.102 218.498 534.602 216.788 539.065 214.947C540.639 214.296 542.208 213.607 543.751 212.862C545.26 212.161 546.783 211.575 548.276 210.896C549.79 210.233 551.193 209.312 552.504 208.285C552.748 208.059 552.992 207.833 553.215 207.59C553.696 207.235 554.064 206.759 554.302 206.182C554.785 205.379 555.011 204.551 555.308 203.674C555.582 202.918 554.887 202.208 554.189 202.083C552.253 201.728 550.389 201.324 548.408 201.384C546.35 201.454 544.375 201.864 542.352 202.202C540.674 202.496 539.013 202.768 537.313 203.045C534.298 203.55 531.27 204.115 528.238 204.642C521.893 205.79 515.596 207.009 509.256 208.195C497.266 210.478 485.349 213.025 473.415 215.594C468.027 216.755 462.624 217.801 457.277 219.132C449.378 221.084 441.478 223.036 433.557 224.971C428.946 226.111 424.383 227.321 419.803 228.554C415.465 229.697 411.111 230.862 406.773 232.004C404.851 232.525 402.895 233.088 400.985 233.548C393.702 235.285 386.44 237.038 379.173 238.752C375.762 239.367 372.367 239.959 368.956 240.574C364.476 241.364 360.006 242.232 355.472 242.601C355.86 242.59 356.244 242.54 356.632 242.529C355.182 242.619 353.693 242.713 352.206 242.67C353.238 242.05 354.313 241.463 355.398 240.953L358.984 239.263C360.565 238.514 362.156 237.842 363.746 237.169C369.012 235.049 374.261 232.95 379.575 230.902C385.28 228.706 391.054 226.598 396.78 224.419C407.995 220.188 419.179 215.864 430.437 211.667C434.958 209.974 439.501 208.298 444.022 206.605C449.324 204.616 454.6 202.573 459.764 200.271C462.308 199.125 464.954 198.161 467.413 196.811C468.544 196.198 469.616 195.436 470.628 194.662C471.89 193.701 472.704 192.29 473.598 191.044C474.291 190.058 474.07 189.092 472.856 188.741C472.045 188.495 471.25 188.226 470.461 187.996C469.306 187.658 468.098 187.657 466.915 187.712C465.191 187.797 463.453 188.079 461.732 188.339C459.709 188.678 457.676 188.939 455.658 189.316C452.158 190 448.654 190.646 445.181 191.385C437.451 192.984 429.742 194.599 422.075 196.385C422.19 196.37 422.283 196.339 422.399 196.324C422.267 196.36 422.113 196.38 421.982 196.417C422.075 196.385 422.152 196.375 422.267 196.36C421.926 196.443 421.586 196.526 421.224 196.592C421.224 196.592 421.279 196.565 421.301 196.582C421.186 196.597 421.092 196.628 420.977 196.643C420.675 196.721 420.352 196.782 420.05 196.86C420.105 196.834 420.165 196.845 420.22 196.819C420.143 196.829 420.088 196.855 420.011 196.865C420.011 196.865 420.011 196.865 419.995 196.887C420.241 196.835 420.505 196.763 420.752 196.711C420.45 196.789 420.126 196.85 419.841 196.906C419.803 196.911 419.748 196.938 419.688 196.926C419.249 197.002 418.815 197.116 418.42 197.226C418.288 197.262 418.156 197.299 418.041 197.313C417.663 197.401 417.301 197.467 416.944 197.572C416.828 197.586 416.735 197.618 416.62 197.633C416.1 197.68 415.572 197.826 415.088 198.005C413.574 198.356 412.059 198.707 410.544 199.058C409.485 199.311 408.317 199.481 407.191 199.821C406.867 199.882 406.527 199.964 406.192 200.086C405.775 200.178 405.358 200.271 404.924 200.385C404.387 200.454 403.855 200.562 403.349 200.724C403.349 200.724 403.332 200.746 403.294 200.751C402.855 200.827 402.422 200.941 402.009 201.072C401.763 201.123 401.516 201.175 401.252 201.247C401.422 201.206 401.576 201.186 401.746 201.145C401.823 201.135 401.878 201.108 401.954 201.099C402.069 201.084 402.18 201.031 402.295 201.016C402.18 201.031 402.048 201.067 401.954 201.099C401.861 201.13 401.784 201.14 401.691 201.171C399.479 201.71 397.293 202.303 395.102 202.857L382.211 206.173C377.418 207.413 372.625 208.654 367.836 209.933C354.384 213.438 340.954 216.959 327.507 220.502C325.827 220.933 324.152 221.402 322.472 221.832C322.071 221.903 321.654 221.996 321.242 222.127C321.412 222.085 321.621 222.039 321.791 221.998C321.637 222.017 321.489 222.076 321.336 222.095C321.319 222.117 321.259 222.105 321.22 222.11C321.089 222.147 320.957 222.183 320.803 222.203C320.88 222.193 320.957 222.183 321.029 222.135C320.952 222.145 320.858 222.176 320.782 222.186C320.952 222.145 321.105 222.125 321.254 222.067C320.99 222.14 320.705 222.196 320.458 222.247C320.305 222.267 320.156 222.325 320.003 222.345C320.079 222.335 320.173 222.303 320.25 222.293C320.003 222.345 319.739 222.418 319.492 222.469C319.054 222.545 318.637 222.637 318.224 222.768C318.093 222.805 317.939 222.825 317.807 222.861C317.824 222.839 317.884 222.851 317.922 222.846C317.884 222.851 317.829 222.878 317.791 222.883C317.39 222.954 316.952 223.03 316.54 223.161C316.348 223.185 316.178 223.227 315.991 223.29C315.667 223.351 315.327 223.434 315.008 223.533C314.876 223.57 314.744 223.606 314.613 223.643C314.327 223.699 314.025 223.777 313.74 223.833C313.11 223.933 312.489 224.111 311.902 224.245C311.787 224.26 311.693 224.291 311.578 224.306C311.408 224.347 311.255 224.367 311.123 224.403C310.662 224.463 310.229 224.577 309.778 224.713C309.723 224.739 309.646 224.749 309.591 224.776C309.366 224.844 309.136 224.873 308.911 224.941C309.119 224.895 309.289 224.854 309.498 224.807C309.289 224.854 309.102 224.917 308.911 224.941C308.472 225.017 308.017 225.115 307.604 225.246C307.302 225.324 306.979 225.385 306.677 225.463C306.6 225.473 306.507 225.504 306.43 225.514C306.123 225.553 305.821 225.631 305.498 225.692C305.251 225.744 305.004 225.795 304.74 225.868C303.94 226.01 303.17 226.245 302.396 226.442C301.821 226.516 301.234 226.65 300.673 226.84C301.013 226.757 301.392 226.669 301.732 226.586C301.617 226.601 301.507 226.654 301.392 226.669C301.145 226.72 300.898 226.772 300.673 226.84C300.673 226.84 300.618 226.866 300.58 226.871C300.58 226.871 300.635 226.844 300.673 226.84C300.618 226.866 300.558 226.854 300.503 226.881C300.503 226.881 300.404 226.874 300.349 226.901L300.596 226.849C300.596 226.849 300.651 226.823 300.69 226.818C300.558 226.854 300.404 226.874 300.273 226.911C300.196 226.92 300.102 226.952 300.026 226.962C300.009 226.983 299.949 226.972 299.911 226.977C299.894 226.998 299.834 226.986 299.796 226.991C299.741 227.018 299.664 227.028 299.625 227.033C299.664 227.028 299.719 227.001 299.757 226.996C299.681 227.006 299.587 227.038 299.51 227.048C298.446 227.262 297.355 227.422 296.286 227.599C293.539 228.069 290.792 228.54 288.045 229.01C282.419 229.987 276.793 230.964 271.094 231.366C268.789 231.487 266.458 231.553 264.165 231.302C263.865 231.243 263.582 231.163 263.316 231.06C262.991 230.81 262.667 230.559 262.342 230.308C262.634 229.842 262.995 229.464 263.438 229.115C263.194 229.341 262.95 229.567 262.727 229.81C263.934 228.875 265.166 227.995 266.464 227.166C271.928 223.85 277.744 221.152 283.491 218.366C288.41 215.978 293.4 213.679 298.373 211.402C309.475 206.289 320.578 201.176 331.787 196.283C344.416 190.759 357.093 185.307 369.775 179.893C375.302 177.525 380.812 175.178 386.339 172.81C396.951 168.286 407.633 163.851 417.896 158.573C420.128 157.428 422.324 156.151 424.412 154.791C426.605 153.339 428.546 151.588 430.551 149.888C431.044 149.473 432.003 148.589 431.649 147.797C431.374 147.169 431.127 146.46 430.654 145.956C430.519 145.817 430.384 145.678 430.245 145.501C429.844 145.26 429.431 145.08 428.985 144.942C428.152 144.679 427.03 144.745 426.202 144.832C425.469 144.887 424.783 145.015 424.076 145.125C423.237 145.272 422.328 145.33 421.441 145.406C420.499 145.507 419.523 145.652 418.564 145.776C417.742 145.901 416.903 146.048 416.081 146.173C413.065 146.678 410.066 147.161 407.039 147.726C400.26 148.988 393.551 150.339 386.825 151.711C380.576 153.002 374.354 154.348 368.149 155.673C362.339 156.888 356.58 158.351 350.827 159.715C337.528 162.888 324.287 166.209 311.05 169.569C310.616 169.684 310.199 169.776 309.744 169.874C310.161 169.781 310.578 169.689 310.995 169.596C310.94 169.623 310.863 169.632 310.808 169.659C310.599 169.705 310.391 169.752 310.166 169.82C310.298 169.783 310.413 169.768 310.544 169.732C310.429 169.747 310.319 169.8 310.204 169.815C309.787 169.907 309.332 170.005 308.915 170.098C308.97 170.071 309.03 170.083 309.085 170.056C309.348 169.983 309.617 169.949 309.88 169.876C309.634 169.927 309.408 169.995 309.161 170.046C309.178 170.025 309.238 170.036 309.277 170.031C309.106 170.073 308.936 170.114 308.728 170.161C308.728 170.161 308.728 170.161 308.711 170.182C308.502 170.229 308.294 170.275 308.085 170.321C308.294 170.275 308.519 170.207 308.728 170.161C308.212 170.246 307.74 170.366 307.345 170.475C307.251 170.506 307.136 170.521 307.043 170.553C307.043 170.553 307.004 170.558 306.966 170.563C306.719 170.614 306.472 170.665 306.247 170.733C306.209 170.738 306.154 170.765 306.115 170.77C306.115 170.77 306.077 170.775 306.038 170.779C305.396 170.94 304.771 171.079 304.107 171.223C303.766 171.306 303.366 171.377 302.987 171.464C302.681 171.504 302.357 171.565 302.06 171.681C301.813 171.732 301.549 171.805 301.307 171.895C301.214 171.927 301.099 171.941 301.005 171.973C300.248 172.148 299.491 172.324 298.733 172.499C298.942 172.453 299.167 172.385 299.397 172.355C299.15 172.406 298.942 172.453 298.695 172.504C298.508 172.567 298.316 172.592 298.129 172.655C298.299 172.613 298.508 172.567 298.678 172.526C297.789 172.738 296.878 172.933 295.989 173.145C295.989 173.145 295.989 173.145 295.972 173.166C295.764 173.213 295.594 173.254 295.385 173.3C295.517 173.264 295.67 173.244 295.819 173.186C295.232 173.32 294.628 173.476 294.019 173.593C293.657 173.659 293.278 173.747 292.938 173.83C292.444 173.932 291.934 174.056 291.445 174.197C291.291 174.217 291.143 174.275 290.989 174.295C290.567 174.349 290.112 174.446 289.7 174.578C289.376 174.639 289.058 174.738 288.734 174.799C288.619 174.814 288.525 174.846 288.394 174.882C288.048 174.926 287.67 175.014 287.329 175.097C286.874 175.195 286.44 175.309 286.006 175.423C285.704 175.501 285.419 175.557 285.117 175.635C285.117 175.635 285.04 175.645 285.024 175.666C284.909 175.681 284.777 175.718 284.662 175.733C284.739 175.723 284.794 175.696 284.87 175.686C284.755 175.701 284.662 175.733 284.53 175.769C284.228 175.847 283.904 175.908 283.602 175.986C283.641 175.981 283.679 175.976 283.734 175.949C280.096 176.768 276.421 177.455 272.773 178.198C268.044 179.177 263.298 180.177 258.569 181.156C257.505 181.371 256.371 181.497 255.28 181.657L246.055 183C243.414 183.378 240.755 183.779 238.113 184.158C234.381 184.696 230.635 184.983 226.885 185.232C225.046 185.332 223.197 185.355 221.348 185.379C219.264 185.393 217.202 185.425 215.149 185.221C214.129 185.021 213.104 184.782 212.12 184.402C212.099 184.385 212.077 184.368 212.034 184.335C212.074 184.193 212.119 184.09 212.16 183.948C212.244 183.84 212.327 183.732 212.394 183.645C213.136 183.043 213.921 182.474 214.711 181.943C218.425 179.73 222.361 178.035 226.271 176.284C236.836 172 247.48 167.882 258.178 163.874C270.323 159.29 282.456 154.765 294.658 150.329C299.707 148.491 304.697 146.504 309.719 144.61C313.365 143.244 316.985 141.823 320.562 140.368C325.955 138.173 331.386 135.973 336.779 133.778C342.413 131.494 348.07 129.226 353.541 126.573C356.422 125.169 359.513 124.03 362.209 122.241C363.468 121.416 364.554 120.457 365.539 119.317C365.776 118.877 366.029 118.415 366.244 117.959C366.308 117.697 366.393 117.452 366.441 117.212C366.531 116.693 366.62 116.175 366.727 115.635C366.898 114.833 366.388 114.197 365.608 114.044C363.907 113.697 362.217 113.291 360.497 113.102C359.547 112.991 358.512 113.124 357.543 113.171C356.656 113.246 355.752 113.342 354.87 113.456C352.985 113.659 351.106 113.901 349.205 114.126C346.251 114.506 343.298 114.886 340.366 115.283C333.679 116.201 327.025 117.214 320.332 118.231C314.077 119.172 307.842 120.266 301.598 121.284C295.485 122.265 289.423 123.493 283.33 124.628C281.273 125.01 279.19 125.336 277.121 125.778C274.449 126.375 271.788 126.912 269.116 127.51C262.438 128.954 255.751 130.321 249.088 131.88C249.505 131.787 249.939 131.673 250.356 131.58C241.202 133.635 232.054 135.728 222.927 137.838C222.965 137.833 223.004 137.828 223.059 137.802C218.999 138.675 214.982 139.582 210.926 140.493C208.139 141.105 205.351 141.717 202.547 142.351C201.466 142.588 200.351 142.868 199.266 143.066C194.555 143.886 189.845 144.707 185.135 145.527C178.801 146.615 172.468 147.702 166.052 148.138C163.162 148.256 160.23 148.341 157.342 148.011C156.219 147.765 155.129 147.476 154.063 147.068C153.787 146.889 153.554 146.743 153.35 146.516C153.35 146.516 153.328 146.499 153.323 146.461C153.37 146.221 153.435 145.959 153.542 145.731C153.609 145.644 153.702 145.613 153.791 145.543C153.757 145.586 153.719 145.591 153.664 145.618C154.172 145.318 154.674 144.981 155.16 144.665C159.183 142.276 163.476 140.476 167.764 138.637C190.493 129.611 213.654 121.679 236.655 113.417C243.237 111.069 249.809 108.645 256.386 106.258C261.77 104.299 267.19 102.471 272.6 100.566C277.938 98.7093 283.255 96.836 288.589 94.9411C292.466 93.5455 296.325 92.1716 300.202 90.7761C301.676 90.2551 303.128 89.7174 304.596 89.158C306.604 88.3928 308.612 87.6276 310.631 86.8024C312.838 85.9142 314.991 84.9158 317.166 83.9341C318.503 83.4112 319.823 82.9099 321.134 82.3319C322.648 81.6693 323.904 80.6693 325.016 79.4539C325.112 79.2856 325.191 79.139 325.286 78.9708C325.614 78.6362 325.74 78.2495 325.703 77.8059C325.72 77.0238 325.638 76.6835 325.149 76.0639C324.033 74.6478 321.616 74.9587 320.092 75.2328C316.796 75.8323 313.49 76.355 310.194 76.9545C303.948 78.109 297.773 79.5272 291.573 80.8902C280.219 83.4231 268.969 86.3131 257.703 89.2246C244.186 92.6792 230.657 96.1938 217.15 99.725C212.192 101.045 207.202 102.272 202.212 103.499C196.695 104.872 191.204 106.299 185.661 107.617C178.229 109.411 170.796 111.206 163.343 112.983C152.796 115.276 142.176 117.442 131.386 118.128C129.853 118.188 128.355 118.206 126.839 118.245C125.225 118.277 123.606 118.271 122.006 118.106C121.483 117.978 120.96 117.851 120.466 117.641C120.081 117.379 119.697 117.116 119.329 116.832C119.48 116.637 119.604 116.388 119.755 116.193C119.755 116.193 119.788 116.149 119.805 116.128C123.622 113.96 127.755 112.278 131.784 110.551C142.469 106.291 153.234 102.196 164.061 98.2882C175.917 94.0335 187.815 89.8123 199.639 85.4643C210.605 81.4215 221.576 77.4171 232.617 73.5012C237.373 71.8171 242.091 70.1379 246.821 68.3987C250.005 67.2287 253.206 66.037 256.407 64.8454C258.568 64.0605 260.681 63.2037 262.811 62.3254C264.83 61.5002 266.802 60.6032 268.715 59.5577C270.337 58.6667 271.765 57.4886 273.226 56.4039C273.745 56.0447 274.096 55.59 274.313 54.9967C274.505 54.2117 273.974 53.5587 273.194 53.4055C271.416 53.0688 269.763 52.7941 267.955 52.9877C266.69 53.1505 265.472 53.3851 264.216 53.6247L258.676 54.6688C255.934 55.1775 253.18 55.7462 250.448 56.3317C244.089 57.6762 237.751 59.0373 231.419 60.4368C219.605 63.0289 207.813 65.6378 196.03 68.3233C183.167 71.2454 170.286 74.1891 157.439 77.0895C155.848 77.4503 154.208 77.7392 152.59 78.0448C148.329 78.866 144.028 79.6922 139.766 80.5134C136.854 81.0635 133.942 81.6136 131.013 82.1854C128.824 82.6034 126.578 82.8729 124.341 83.2191C113.498 84.8674 102.663 86.7292 91.6935 87.38C91.8302 87.382 91.9669 87.3839 92.1203 87.3641C88.3654 87.5742 84.572 87.7893 80.8155 87.3757C79.9973 87.2275 79.2461 86.9927 78.43 86.7078C77.9787 86.5319 77.5274 86.3559 77.0929 86.1584C77.1431 86.0935 77.1333 86.0167 77.1619 85.9351C78.0217 85.493 78.8864 85.0893 79.7462 84.6473C80.8432 84.0772 81.9715 83.6006 83.0998 83.1241C85.4765 82.1944 87.8099 81.2314 90.2179 80.3952C93.0165 79.4113 95.8102 78.389 98.6136 77.4435C105.172 75.2156 111.745 73.1027 118.313 70.9515C130.277 67.0923 142.224 63.2548 154.189 59.3956C164.823 55.9609 175.453 52.4879 186.056 48.9597C192.245 46.8963 198.444 44.9095 204.602 42.7526C211.15 40.448 217.737 38.1384 224.285 35.8337C229.827 33.8925 235.258 31.6926 240.68 29.416C242.853 28.571 245.057 27.8195 247.044 26.5891C247.607 26.2632 248.165 25.899 248.658 25.4846C249.074 25.0802 249.507 24.654 249.94 24.2279C250.16 23.8097 250.401 23.4083 250.599 22.9734C250.72 22.5483 250.82 22.1066 250.919 21.6649C251.24 20.3564 249.795 20.0353 248.867 19.9403C246.972 19.7551 245.18 19.6152 243.291 19.7803C241.884 19.9028 240.486 20.1021 239.088 20.3014L233.273 21.1665C230.307 21.6065 227.378 22.1783 224.401 22.6783C218.715 23.6437 213.053 24.8009 207.404 25.8982C195.644 28.1519 183.872 30.4656 172.169 33.0045C158.528 35.9485 144.876 38.9526 131.25 42.0117C119.309 44.6787 107.378 47.4223 95.4419 50.1276C91.2931 51.0707 87.0912 51.9037 82.9159 52.7918L66.9335 56.1736C65.4354 56.5028 63.8746 56.6451 62.3619 56.8592C58.8595 57.3682 55.362 57.9156 51.8428 58.4464C49.1075 58.8567 46.3723 59.2671 43.6203 59.6991C42.3377 59.8836 41.0286 60.013 39.7412 60.1591C36.0707 60.5728 32.3687 60.8931 28.6737 61.115C25.5157 61.2678 22.3863 61.3389 19.2471 61.3333C15.8729 61.319 12.553 60.9662 9.22326 60.5367C8.82011 60.4326 8.4386 60.3452 8.06891 60.1978C8.04728 60.1811 8.00403 60.1477 7.98241 60.131C7.95099 60.0375 7.91958 59.9441 7.88818 59.8506C7.90001 59.7906 7.89023 59.7139 7.90206 59.6539C8.37831 59.2612 8.85946 58.9068 9.36223 58.5692C12.2143 56.935 15.1921 55.6746 18.2082 54.4093C29.9624 49.9727 41.8304 45.9699 53.7053 41.8687C65.5468 37.8109 77.3471 33.5828 89.1258 29.3381C98.8151 25.83 108.451 22.2118 118.22 18.869C123.657 17.0193 129.094 15.1696 134.531 13.3199C138.23 12.0641 141.891 10.8133 145.569 9.54076C146.933 9.07292 148.296 8.60508 149.621 8.14217C151.562 7.46358 153.481 6.76827 155.374 6.01788C157.08 5.33053 158.716 4.55469 160.368 3.75718C161.029 3.43818 161.98 2.78951 162.172 2.0044C162.353 1.27932 161.862 0.796514 161.214 0.60692C160.724 0.435952 160.223 0.325005 159.671 0.279001C159.091 0.314655 158.489 0.333587 157.914 0.407605C157.288 0.546571 156.663 0.685542 156.042 0.862866C155.625 0.955511 155.213 1.08651 154.817 1.19587C153.571 1.51216 152.346 1.84518 151.127 2.21655C148.896 2.91297 146.708 3.64282 144.504 4.39432C139.424 6.13959 134.392 7.95666 129.334 9.71865C128.659 9.92255 128.057 10.2533 127.505 10.6559C127.1 11.0004 126.523 11.523 126.525 12.1467C122.116 13.6497 117.724 15.131 113.315 16.634C111.166 17.3589 109.048 18.1773 106.904 18.9406C102.955 20.3844 99.0233 21.8065 95.0531 23.2336C89.3507 25.2929 83.6433 27.3139 77.9576 29.3516C66.3442 33.5166 54.6513 37.5163 42.9751 41.4945C37.5216 43.3658 32.0848 45.2155 26.6962 47.137C23.6556 48.2105 20.6583 49.3175 17.6443 50.4461C16.2858 50.9523 14.9705 51.4919 13.6602 52.0699C11.2383 53.1028 8.84978 54.0925 6.5388 55.3841C4.79057 56.3499 3.09539 57.4258 1.696 58.8341C1.52378 59.0122 1.35155 59.1903 1.17933 59.3685C0.921391 59.7916 0.680195 60.193 0.460614 60.6112L0.633616 60.7449L0.449546 60.9831ZM7.89797 59.9274C8.03182 59.7542 8.17058 59.6194 8.34768 59.4796L7.89797 59.9274ZM7.7641 60.1006C7.7641 60.1006 7.69717 60.1872 7.68533 60.2472C7.7188 60.2039 7.75226 60.1606 7.78572 60.1173L7.7641 60.1006ZM7.5633 60.3604C7.5131 60.4253 7.46291 60.4902 7.43434 60.5719C7.48454 60.507 7.5131 60.4253 7.54167 60.3436L7.5633 60.3604ZM92.3729 87.6631C92.3729 87.6631 92.5863 87.6551 92.7014 87.6403C92.5863 87.6551 92.488 87.6483 92.3729 87.6631ZM131.207 118.404C131.207 118.404 131.42 118.396 131.557 118.398C131.442 118.413 131.343 118.406 131.207 118.404ZM152.728 146.382C152.91 146.28 153.071 146.162 153.269 146.039C153.087 146.14 152.927 146.258 152.728 146.382ZM211.479 184.114C211.479 184.114 211.576 184.257 211.645 184.346C211.58 184.296 211.549 184.202 211.479 184.114ZM212.329 183.595C212.329 183.595 212.205 183.845 212.122 183.953C212.184 183.828 212.246 183.703 212.329 183.595ZM212.126 184.752C212.126 184.752 212.332 184.842 212.397 184.892C212.294 184.847 212.191 184.802 212.126 184.752ZM289.388 85.7724C289.388 85.7724 289.614 85.7044 289.729 85.6896C289.882 85.6699 290.031 85.6118 290.184 85.592C289.92 85.6649 289.652 85.6995 289.388 85.7724ZM318.106 78.9196C318.049 79.083 317.97 79.2296 317.87 79.3595C317.948 79.2129 318.027 79.0662 318.106 78.9196ZM316.096 84.5592C316.3 84.4745 316.503 84.3898 316.745 84.3002C316.542 84.3849 316.338 84.4696 316.096 84.5592ZM282.985 176.338C283.21 176.27 283.457 176.219 283.665 176.173C283.418 176.224 283.193 176.292 282.946 176.343L282.985 176.338ZM283.78 176.158C284.082 176.08 284.423 175.997 284.746 175.936C284.423 175.997 284.104 176.097 283.78 176.158ZM283.542 180.4C283.827 180.344 284.129 180.266 284.431 180.188C284.316 180.203 284.222 180.234 284.107 180.249C284.124 180.227 284.184 180.239 284.222 180.234C283.975 180.286 283.728 180.337 283.503 180.405L283.542 180.4ZM284.869 180.112C284.869 180.112 284.925 180.085 284.963 180.08C284.963 180.08 284.908 180.107 284.869 180.112ZM285.001 180.076C285.001 180.076 285.133 180.039 285.171 180.034C285.171 180.034 285.171 180.034 285.188 180.013C285.111 180.022 285.056 180.049 284.98 180.059L285.001 180.076ZM285.852 179.869C285.852 179.869 285.852 179.869 285.835 179.89L285.852 179.869ZM285.852 179.869C285.852 179.869 285.89 179.864 285.929 179.859C285.929 179.859 285.929 179.859 285.89 179.864L285.852 179.869ZM309.833 170.116C309.833 170.116 309.85 170.094 309.888 170.089C309.888 170.089 309.871 170.111 309.833 170.116ZM358.29 119.489C358.216 119.674 358.121 119.842 358.004 119.994C358.099 119.825 358.195 119.657 358.29 119.489ZM298.289 227.556C298.629 227.473 298.969 227.39 299.31 227.307C299.31 227.307 299.31 227.307 299.293 227.329C298.953 227.412 298.629 227.473 298.327 227.551L298.289 227.556ZM299.224 231.53C299.224 231.53 299.318 231.498 299.378 231.51C299.378 231.51 299.361 231.531 299.323 231.536C299.323 231.536 299.267 231.563 299.229 231.568L299.224 231.53ZM312.262 224.315C312.262 224.315 312.525 224.242 312.64 224.228C312.509 224.264 312.377 224.301 312.262 224.315ZM311.891 228.594C312.061 228.552 312.231 228.511 312.402 228.47C312.231 228.511 312.023 228.557 311.853 228.599L311.891 228.594ZM321.806 222.113C321.806 222.113 321.861 222.086 321.882 222.103C321.882 222.103 321.899 222.081 321.937 222.076C321.937 222.076 321.899 222.081 321.861 222.086C321.861 222.086 321.844 222.108 321.806 222.113ZM321.937 222.076C321.937 222.076 322.184 222.025 322.316 221.989C322.261 222.015 322.201 222.003 322.146 222.03C322.069 222.04 322.014 222.066 321.937 222.076ZM322.695 221.901C322.695 221.901 322.827 221.864 322.903 221.855C322.827 221.864 322.772 221.891 322.695 221.901ZM419.359 152.926C419.359 152.926 419.558 152.803 419.63 152.755C419.541 152.825 419.431 152.878 419.359 152.926ZM351.668 242.427C351.668 242.427 351.733 242.477 351.738 242.516C351.738 242.516 351.673 242.466 351.668 242.427ZM350.631 243.769C350.631 243.769 350.813 243.668 350.901 243.598C350.813 243.668 350.719 243.7 350.631 243.769ZM352.06 242.903C352.207 242.982 352.331 243.044 352.478 243.122C352.298 243.087 352.151 243.008 352.043 242.925L352.06 242.903ZM363.04 237.591C363.04 237.591 363.282 237.502 363.392 237.449C363.282 237.502 363.15 237.538 363.04 237.591ZM400.956 205.653C400.956 205.653 401.126 205.611 401.203 205.601C401.28 205.592 401.335 205.565 401.412 205.555C401.258 205.575 401.11 205.633 400.956 205.653ZM421.721 196.665C421.721 196.665 421.836 196.65 421.891 196.623C421.836 196.65 421.776 196.638 421.721 196.665ZM421.142 200.989C421.142 200.989 421.18 200.984 421.218 200.979C421.312 200.948 421.389 200.938 421.482 200.907C421.427 200.933 421.367 200.921 421.312 200.948C421.405 200.916 421.52 200.902 421.597 200.892C421.712 200.877 421.844 200.84 421.937 200.809C421.822 200.824 421.729 200.855 421.614 200.87C421.669 200.844 421.729 200.855 421.784 200.829C421.784 200.829 421.729 200.855 421.707 200.839C421.669 200.844 421.614 200.87 421.575 200.875C421.444 200.911 421.29 200.931 421.142 200.989ZM459.567 245.801C459.567 245.801 459.809 245.711 459.919 245.658C459.809 245.711 459.677 245.748 459.567 245.801ZM544.82 206.115C544.82 206.115 545.148 206.093 545.285 206.095C545.132 206.114 544.957 206.117 544.82 206.115ZM545.385 207.797C545.529 207.701 545.673 207.604 545.838 207.525C545.694 207.621 545.551 207.718 545.385 207.797ZM546.173 207.404C546.362 207.204 546.573 207.021 546.762 206.821C546.595 207.037 546.384 207.221 546.173 207.404ZM547.137 206.246C547.087 206.311 547.037 206.376 547.008 206.458C547.058 206.393 547.087 206.311 547.099 206.251L547.137 206.246ZM452.684 199.018C452.684 199.018 452.684 199.018 452.668 199.039L452.684 199.018ZM421.52 200.902C421.52 200.902 421.537 200.88 421.575 200.875C421.559 200.897 421.499 200.885 421.46 200.89C421.46 200.89 421.515 200.863 421.554 200.858L421.52 200.902ZM420.725 201.082C420.725 201.082 420.533 201.107 420.439 201.138C420.363 201.148 420.308 201.175 420.231 201.185C420.401 201.143 420.554 201.123 420.703 201.065L420.725 201.082ZM421.891 196.623C421.891 196.623 421.984 196.592 422.044 196.603C422.006 196.608 421.951 196.635 421.913 196.64C421.989 196.63 422.083 196.599 422.159 196.589C421.896 196.662 421.611 196.718 421.347 196.791C421.462 196.776 421.555 196.744 421.671 196.73C421.539 196.766 421.424 196.781 421.292 196.817C421.292 196.817 421.215 196.827 421.198 196.849C421.424 196.781 421.671 196.73 421.879 196.683L421.891 196.623ZM421.134 196.799C421.134 196.799 421.249 196.784 421.304 196.757C421.304 196.757 421.304 196.757 421.32 196.736C421.244 196.745 421.189 196.772 421.112 196.782L421.134 196.799ZM421.04 196.83C421.04 196.83 421.21 196.789 421.287 196.779C421.249 196.784 421.194 196.81 421.155 196.815C421.155 196.815 421.1 196.842 421.078 196.825C421.078 196.825 421.117 196.82 421.155 196.815C420.87 196.872 420.568 196.949 420.283 197.006C420.53 196.954 420.793 196.881 421.04 196.83ZM401.672 201.33C401.672 201.33 401.842 201.289 401.957 201.274C401.957 201.274 401.825 201.31 401.749 201.32C401.578 201.361 401.408 201.403 401.255 201.423C401.178 201.432 401.101 201.442 401.03 201.491C401.238 201.444 401.447 201.398 401.655 201.352L401.672 201.33ZM321.185 222.29C321.108 222.3 321.053 222.327 320.976 222.336C321.053 222.327 321.108 222.3 321.168 222.312L321.185 222.29ZM318.155 222.992C318.155 222.992 317.947 223.038 317.815 223.075C317.93 223.06 318.04 223.007 318.155 222.992ZM301.029 231.161C301.029 231.161 301.012 231.183 300.974 231.187C300.859 231.202 300.749 231.255 300.634 231.27C300.557 231.28 300.464 231.312 300.387 231.322C300.595 231.275 300.821 231.207 301.029 231.161ZM300.387 231.322C300.387 231.322 300.123 231.394 300.008 231.409C300.14 231.373 300.272 231.336 300.387 231.322ZM298.587 231.729C298.587 231.729 298.417 231.77 298.34 231.78C298.417 231.77 298.51 231.738 298.587 231.729ZM300.357 227.114L300.434 227.104C300.434 227.104 300.395 227.109 300.357 227.114ZM310.719 174.155C310.719 174.155 310.889 174.113 310.982 174.082C310.85 174.118 310.697 174.138 310.548 174.196C310.604 174.169 310.663 174.181 310.719 174.155ZM311.021 174.077C311.021 174.077 310.889 174.113 310.812 174.123C310.812 174.123 310.735 174.133 310.719 174.155C310.68 174.16 310.625 174.186 310.587 174.191C310.433 174.211 310.285 174.269 310.131 174.289C310.263 174.252 310.417 174.232 310.548 174.196C310.302 174.247 310.038 174.32 309.791 174.371C310.208 174.279 310.625 174.186 311.021 174.077ZM309.374 174.464C309.374 174.464 309.319 174.491 309.297 174.474C309.297 174.474 309.336 174.469 309.374 174.464ZM309.297 174.474C309.297 174.474 309.297 174.474 309.259 174.479C309.259 174.479 309.281 174.496 309.319 174.491L309.297 174.474ZM309.259 174.479C309.221 174.484 309.182 174.489 309.127 174.515C309.165 174.51 309.204 174.505 309.259 174.479ZM309.259 174.479C309.259 174.479 309.05 174.525 308.935 174.54C308.82 174.555 308.71 174.608 308.595 174.623C308.804 174.576 309.05 174.525 309.259 174.479ZM309.042 170.335C309.042 170.335 309.004 170.339 308.966 170.344C308.949 170.366 308.889 170.354 308.834 170.381C308.91 170.371 308.966 170.344 309.042 170.335ZM308.587 170.432C308.587 170.432 308.74 170.412 308.795 170.386C308.719 170.396 308.642 170.406 308.549 170.437L308.587 170.432ZM298.494 172.764C298.494 172.764 298.494 172.764 298.511 172.742C298.511 172.742 298.494 172.764 298.456 172.769L298.494 172.764ZM295.767 173.388C295.767 173.388 295.767 173.388 295.783 173.366C295.992 173.32 296.217 173.252 296.426 173.205C296.14 173.262 295.877 173.334 295.592 173.391C295.63 173.386 295.685 173.359 295.745 173.371L295.767 173.388ZM286.022 179.827C286.022 179.827 286.039 179.806 286.077 179.801L286.022 179.827ZM284.507 180.178C284.452 180.205 284.392 180.193 284.337 180.219C284.392 180.193 284.469 180.183 284.507 180.178ZM284.414 180.21C284.206 180.256 283.997 180.302 283.75 180.353C283.959 180.307 284.167 180.261 284.414 180.21ZM283.75 180.353C283.75 180.353 283.712 180.358 283.673 180.363C283.673 180.363 283.728 180.337 283.75 180.353ZM283.673 180.363C283.503 180.405 283.311 180.429 283.125 180.492C283.295 180.451 283.465 180.41 283.673 180.363ZM222.399 142.41L221.735 142.554C221.944 142.507 222.152 142.461 222.399 142.41Z" fill="#F96C85"/>
</svg>
